<?xml version="1.0" standalone="no"?>
<!DOCTYPE svg PUBLIC "-//W3C//DTD SVG 1.1//EN" "http://www.w3.org/Graphics/SVG/1.1/DTD/svg11.dtd" >
<!--
2013-9-30: Created.
-->
<svg>
<metadata>
Created by iconfont
</metadata>
<defs>

<font id="anticon-portal" horiz-adv-x="1024" >
  <font-face
    font-family="anticon-portal"
    font-weight="500"
    font-stretch="normal"
    units-per-em="1024"
    ascent="896"
    descent="-128"
  />
    <missing-glyph />
    
    <glyph glyph-name="anquan01" unicode="&#59198;" d="M856.139 716.103c-1.622 8-6.563 14.935-13.596 19.080-7.034 4.144-15.493 5.108-23.28 2.648-67.014-21.163-139.715-8.946-216.082 36.31-59.11 35.031-98.103 77.59-98.782 78.335-6.595 7.301-16.084 10.432-25.155 9.233-9.010 1.136-18.413-1.99-24.972-9.227-0.387-0.428-39.451-43.178-98.786-78.341-76.366-45.255-149.067-57.472-216.082-36.31-7.784 2.458-16.246 1.494-23.279-2.648-7.033-4.145-11.975-11.079-13.596-19.080-1.095-5.403-26.459-134.103 4.607-288.872 18.384-91.595 52.824-173.251 102.364-242.701 62.043-86.98 147.732-154.566 254.687-200.879 3.727-1.613 12.821-3.817 14.074-3.817 5.276 0 12.494 2.204 16.219 3.817 106.956 46.313 192.646 113.899 254.687 200.879 49.54 69.451 83.98 151.107 102.364 242.701 31.066 154.769 5.703 283.469 4.609 288.872zM796.648 437.947c-38.008-186.632-144.1-320.088-315.382-396.796-171.28 76.708-277.372 210.164-315.382 396.796-20.701 101.643-14.743 192.978-9.397 238.159 36.557-6.765 74.44-5.999 113.034 2.322 39.236 8.461 79.174 24.724 118.703 48.336 41.975 25.073 74.408 52.992 93.040 70.638 18.633-17.647 51.067-45.564 93.040-70.638 39.529-23.613 79.467-39.876 118.703-48.336 38.594-8.321 76.477-9.088 113.033-2.321 5.348-45.195 11.303-136.525-9.396-238.16zM452.227 292.013c-7.372 0-14.737 2.813-20.352 8.43l-99.724 99.724c-11.239 11.24-11.239 29.463 0 40.702s29.463 11.24 40.702 0l79.673-79.672 164.292 159.503c11.407 11.072 29.626 10.802 40.698-0.603s10.804-29.625-0.602-40.697l-184.641-179.257c-5.587-5.425-12.819-8.132-20.047-8.132z"  horiz-adv-x="1024" />

    
    <glyph glyph-name="huabi" unicode="&#58899;" d="M597.8112 167.2192c1.5872-85.1456-24.832-156.0064-79.2576-210.6368-54.272-54.4768-125.2352-81.7664-210.944-81.7664-49.0496 0-93.0816 9.3696-131.84 28.3648a246.016 246.016 0 0 0-94.3104 79.0016 353.8432 353.8432 0 0 0-51.456 108.6976 464.9984 464.9984 0 0 0-16.896 127.8464v59.392l48.4352-34.304c2.7136-1.9456 10.0352-7.2704 22.6816-16.5888 12.0832-8.8576 23.04-16.7936 33.024-23.7056 9.216-6.4512 18.944-12.4928 29.184-18.0224 7.0144-3.8912 11.4176-5.5296 10.24-5.5296 2.1504 0 0.6144-1.024 1.0752 0.256 9.9328 26.112 21.504 48.7424 34.816 67.84 13.312 19.0976 27.904 35.0208 43.6736 47.616a191.8464 191.8464 0 0 0 56.832 30.7712c20.3264 7.168 40.9088 12.2368 61.696 15.2576 11.1104 1.5872 23.3472 2.9184 36.8128 3.9936a207.2576 207.2576 0 0 0-3.8912 40.448c0 54.8864 20.224 101.4784 60.0064 137.8304l346.2144 314.1632C820.736 862.72 851.5584 875.52 885.248 875.52c32.8192 0 62.208-11.1616 86.8352-32.9216 25.6-22.6816 38.8608-52.1216 38.8608-86.272 0-28.3136-9.5232-60.1088-28.0064-96.256-122.0096-231.168-207.0016-368.64-258.56-416.3072-37.376-35.0208-79.9744-54.4256-126.8224-57.344l0.256-19.2zM885.248 814.08c-17.7664 0-33.9968-6.7584-49.9712-21.3504L489.0624 478.5152c-26.88-24.5248-39.936-54.6304-39.936-92.3648 0-37.888 13.2096-69.888 40.3456-97.6896 27.0336-27.648 58.2656-40.96 95.5392-40.96 35.7376 0 67.7376 13.312 97.4336 41.216 44.544 41.1648 127.8464 175.872 245.9648 399.616 14.2848 27.904 21.0944 50.7392 21.0944 67.9936a50.3296 50.3296 0 0 1-18.1248 40.2432 66.5088 66.5088 0 0 1-46.1312 17.5104zM363.52 280.8832a267.3664 267.3664 0 0 1-50.176-12.3904c-15.36-5.376-28.16-12.288-38.8096-20.7872a166.2464 166.2464 0 0 1-31.744-34.8672c-10.1888-14.6432-19.456-32.768-27.648-54.4256-9.6768-25.4464-31.1296-39.8848-58.88-39.8848-11.776 0.1024-24.0128 4.608-39.3216 13.0048a370.8928 370.8928 0 0 0-38.0416 23.7568c2.4064-16.384 5.7856-32.256 10.1376-47.5648 9.5744-33.6384 23.7568-63.5904 42.496-90.0096 17.7664-25.088 41.3696-44.8 71.168-59.392 30.0032-14.6432 64.8704-22.0672 104.8576-22.0672 69.9392 0 125.0816 21.1968 167.424 63.6928 42.24 42.3936 62.6688 97.0752 61.3888 166.2464l-0.256 16.384a250.2144 250.2144 0 0 0-70.5024 39.936 246.9888 246.9888 0 0 0-55.9616 62.8736c-17.5616-1.0752-32.9216-2.56-46.08-4.5056z"  horiz-adv-x="1024" />

    
    <glyph glyph-name="shouji" unicode="&#59531;" d="M781.312 896H241.664C205.824 896 178.176 866.304 178.176 829.44v-890.88c0-36.864 27.648-66.56 63.488-66.56H782.336c34.816 0 63.488 29.696 63.488 66.56v890.88C844.8 866.304 817.152 896 781.312 896z m13.312-957.44c0-7.168-6.144-13.312-12.288-13.312H242.688c-7.168 0-12.288 6.144-12.288 13.312v890.88c0 7.168 6.144 13.312 12.288 13.312H782.336c7.168 0 12.288-6.144 12.288-13.312v-890.88z m-156.672 98.304H385.024c-14.336 0-24.576-12.288-24.576-26.624s11.264-26.624 24.576-26.624h251.904c14.336 0 24.576 12.288 24.576 26.624s-10.24 26.624-23.552 26.624z m0 0"  horiz-adv-x="1024" />

    
    <glyph glyph-name="chakan" unicode="&#58887;" d="M953.892-65.587L807.613 53.356c32.748 38.676 48.784 87.654 45.149 138.28-7.501 105.012-99.559 186.138-206.106 178.56-106.06-7.598-186.163-100.07-178.56-206.13 7.194-100.399 91.597-179.047 192.154-179.047 4.608 0 9.272 0.174 13.977 0.512 35.835 2.57 69.473 14.797 98.002 35.17l149.284-121.386a25.61 25.61 0 0 1 16.184-5.668c6.933 0 13.82 2.693 18.699 8.013 8.939 9.697 7.818 24.366-2.504 32.753zM366.879 177.859c0 13.306 0.983 26.373 2.744 39.198H171.162a19.21 19.21 0 0 0-19.2 19.2c0 10.599 8.601 19.2 19.2 19.2h206.13c0.113 0 0.216-0.03 0.323-0.036 17.567 62.444 55.767 116.214 106.83 153.488H171.161c-10.599 0-19.2 8.601-19.2 19.2 0 10.598 8.601 19.2 19.2 19.2h342.63c7.557 0 14.039-4.414 17.167-10.773A284.728 284.728 0 0 0 652.8 463.775a284.524 284.524 0 0 0 151.188-43.27V771.457c0 38.835-31.56 70.4-70.4 70.4h-600.8c-38.81 0-70.4-31.565-70.4-70.4v-755.948c0-38.83 31.59-70.4 70.4-70.4h354.047C414.25-3.036 366.88 81.853 366.88 177.858zM171.162 637.952h479.155c10.593 0 19.2-8.602 19.2-19.2 0-10.598-8.607-19.2-19.2-19.2H171.162c-10.599 0-19.2 8.602-19.2 19.2 0 10.598 8.601 19.2 19.2 19.2z"  horiz-adv-x="1024" />

    
    <glyph glyph-name="jinru" unicode="&#58913;" d="M837.824-23.232 267.648-23.232c-67.52 0-122.176 54.656-122.176 122.176L145.472 261.824l81.472 0 0-53.248c0-83.072 67.264-150.4 150.4-150.4l350.848 0c83.008 0 150.4 67.328 150.4 150.4L878.592 559.424c0 83.072-67.392 150.4-150.4 150.4L377.344 709.824c-83.136 0-150.4-67.328-150.4-150.4l0-12.48L145.408 546.944 145.408 669.056c0 67.52 54.656 122.176 122.176 122.176l570.176 0C905.28 791.232 960 736.576 960 669.056l0-570.112C960 31.424 905.28-23.232 837.824-23.232zM471.232 587.648 715.648 384l-244.352-162.944L471.296 343.232 64 343.232 64 465.408l407.232 0L471.232 587.648z"  horiz-adv-x="1024" />

    
    <glyph glyph-name="denglu" unicode="&#58895;" d="M511.845 316.363c-60.191 0-116.781 23.44-159.343 66.002-42.562 42.562-66.002 99.151-66.002 159.343s23.44 116.78 66.002 159.343c42.562 42.562 99.152 66.002 159.343 66.002 60.191 0 116.781-23.44 159.343-66.002 42.562-42.562 66.002-99.151 66.002-159.343s-23.44-116.78-66.002-159.343c-42.56-42.563-99.15-66.002-159.343-66.002z m0 403.617c-98.3 0-178.273-79.972-178.273-178.273 0-98.3 79.973-178.272 178.273-178.272s178.273 79.972 178.273 178.272S610.145 719.98 511.845 719.98zM855.698 19.006h-47.072c0 78.935-30.74 153.144-86.554 208.96-55.815 55.813-130.024 86.553-208.959 86.553-78.933 0-153.144-30.74-208.959-86.554-55.814-55.815-86.553-130.024-86.553-208.959h-47.072c0 46.24 9.06 91.106 26.931 133.356 17.256 40.798 41.955 77.433 73.41 108.887s68.089 56.153 108.886 73.41c42.251 17.87 87.118 26.93 133.356 26.93 46.24 0 91.106-9.06 133.357-26.93 40.797-17.257 77.432-41.955 108.887-73.41s56.152-68.09 73.408-108.887c17.872-42.25 26.934-87.117 26.934-133.356z"  horiz-adv-x="1024" />

    
    <glyph glyph-name="bokexinwen" unicode="&#59133;" d="M146.285714 603.428571l585.142857 0 0-73.142857-585.142857 0 0 73.142857ZM146.285714 420.571429l219.428571 0 0-256-219.428571 0 0 256ZM438.857143 420.571429l292.571429 0 0-36.571429-292.571429 0 0 36.571429ZM438.857143 310.857143l292.571429 0 0-36.571429-292.571429 0 0 36.571429ZM438.857143 201.142857l292.571429 0 0-36.571429-292.571429 0 0 36.571429ZM987.428571 603.428571l-109.714286 0L877.714286 786.285714c0 20.196571-16.356571 36.571429-36.571429 36.571429L36.571429 822.857143C16.3584 822.857143 0 806.482286 0 786.285714l0-804.571429c0-20.214857 16.356571-36.571429 36.571429-36.571429l950.857143 0c20.214857 0 36.571429 16.356571 36.571429 36.571429L1024 566.857143C1024 587.053714 1007.643429 603.428571 987.428571 603.428571zM804.571429 18.285714 73.142857 18.285714 73.142857 749.714286l731.428571 0L804.571429 18.285714zM950.857143 18.285714l-73.142857 0L877.714286 530.285714l73.142857 0L950.857143 18.285714z"  horiz-adv-x="1024" />

    
    <glyph glyph-name="wenjuan" unicode="&#59579;" d="M895.946667 161.952l1.066666-1.013333a29.824 29.824 0 0 0 0-43.413334l-162.261333-152.96a31.925333 31.925333 0 0 0-22.762667-8.704 31.925333 31.925333 0 0 0-22.773333 8.704l-93.184 87.84a29.824 29.824 0 0 0 0 43.413334l1.077333 1.013333a32 32 0 0 0 43.904 0l70.976-66.901333 140.053334 132.021333a32 32 0 0 0 43.904 0zM768 810.666667c64.8 0 117.333333-52.533333 117.333333-117.333334v-394.666666a32 32 0 0 0-64 0V693.333333a53.333333 53.333333 0 0 1-53.333333 53.333334H256a53.333333 53.333333 0 0 1-53.333333-53.333334v-618.666666a53.333333 53.333333 0 0 1 53.333333-53.333334h234.666667a32 32 0 0 0 0-64H256c-64.8 0-117.333333 52.533333-117.333333 117.333334V693.333333c0 64.8 52.533333 117.333333 117.333333 117.333334zM554.666667 352a32 32 0 0 0 0-64H341.333333a32 32 0 0 0 0 64z m128 170.666667a32 32 0 0 0 0-64H341.333333a32 32 0 0 0 0 64z"  horiz-adv-x="1024" />

    
    <glyph glyph-name="jia1" unicode="&#58898;" d="M800 400 528 400 528 672.64 496 672.64 496 400 222.72 400 222.72 368 496 368 496 95.36 528 95.36 528 368 800 368Z"  horiz-adv-x="1024" />

    
    <glyph glyph-name="icon_gou" unicode="&#58905;" d="M414.340741 85.333333c-14.506667 0-28.254815 6.352593-37.736297 17.351111L133.783704 385.327407c-7.68 8.912593-6.637037 22.376296 2.275555 30.056297 8.912593 7.68 22.376296 6.637037 30.056297-2.275556l242.915555-282.642963c1.896296-2.180741 4.171852-2.465185 5.404445-2.465185 1.232593 0 3.034074 0.379259 4.361481 1.896296L859.022222 646.731852c7.68 9.007407 21.143704 10.05037 30.056297 2.37037 9.007407-7.68 10.05037-21.143704 2.37037-30.056296L451.318519 102.21037c-9.102222-10.714074-22.565926-16.877037-36.788149-16.877037h-0.189629z"  horiz-adv-x="1024" />

    
    <glyph glyph-name="biaoqing" unicode="&#59181;" d="M512.1 832.1C265 832.1 64 631 64 384c0-247.1 201-448.1 448.1-448.1 247.1 0 448.1 201 448.1 448.1 0 247-201.1 448.1-448.1 448.1z m0-800.5c-194.3 0-352.4 158.1-352.4 352.4 0 194.3 158.1 352.4 352.4 352.4 194.3 0 352.4-158.1 352.4-352.4 0-194.3-158.1-352.4-352.4-352.4zM404.9 424.1c36.7 0 66.4 29.7 66.4 66.4s-29.7 66.4-66.4 66.4-66.4-29.7-66.4-66.4c0.1-36.7 29.8-66.4 66.4-66.4z m214.3 0c36.7 0 66.4 29.7 66.4 66.4s-29.7 66.4-66.4 66.4-66.4-29.7-66.4-66.4c0.1-36.7 29.8-66.4 66.4-66.4z m80.5-78.4c-25.4 7.9-52-6.4-59.8-31.6-17.4-56.4-68.9-94.3-128-94.3-58.7 0-110 37.6-127.7 93.5-7.9 25.2-35 39.2-60 31.1-25.2-8-39.1-34.9-31.2-60.1 30.4-95.9 118.4-160.2 218.9-160.2 101.4 0 189.6 65 219.4 161.8 7.8 25.2-6.4 52-31.6 59.8z"  horiz-adv-x="1024" />

    
    <glyph glyph-name="icon_huabanfuben" unicode="&#58924;" d="M874.666667 644.266667H586.903704c-11.757037 0-21.333333 9.576296-21.333334 21.333333v59.733333h-105.244444v-59.733333c0-11.757037-9.576296-21.333333-21.333333-21.333333H149.333333c-11.757037 0-21.333333 9.576296-21.333333 21.333333s9.576296 21.333333 21.333333 21.333333h268.325926v59.733334c0 11.757037 9.576296 21.333333 21.333334 21.333333h147.911111c11.757037 0 21.333333-9.576296 21.333333-21.333333v-59.733334h266.42963c11.757037 0 21.333333-9.576296 21.333333-21.333333s-9.576296-21.333333-21.333333-21.333333zM761.837037 0.568889h-499.674074c-24.272593 0-44.088889 19.816296-44.088889 44.088889v520.533333c0 11.757037 9.576296 21.333333 21.333333 21.333333s21.333333-9.576296 21.333334-21.333333v-520.533333c0-0.758519 0.663704-1.422222 1.422222-1.422222h499.674074c0.758519 0 1.422222 0.663704 1.422222 1.422222v520.533333c0 11.757037 9.576296 21.333333 21.333334 21.333333s21.333333-9.576296 21.333333-21.333333v-520.533333c0-24.367407-19.816296-44.088889-44.088889-44.088889zM369.777778 129.327407c-11.757037 0-21.333333 9.576296-21.333334 21.333334V532.954074c0 11.757037 9.576296 21.333333 21.333334 21.333333s21.333333-9.576296 21.333333-21.333333v-382.293333c0-11.851852-9.576296-21.333333-21.333333-21.333334zM512 129.327407c-11.757037 0-21.333333 9.576296-21.333333 21.333334V532.954074c0 11.757037 9.576296 21.333333 21.333333 21.333333s21.333333-9.576296 21.333333-21.333333v-382.293333c0-11.851852-9.576296-21.333333-21.333333-21.333334zM654.222222 129.327407c-11.757037 0-21.333333 9.576296-21.333333 21.333334V532.954074c0 11.757037 9.576296 21.333333 21.333333 21.333333s21.333333-9.576296 21.333334-21.333333v-382.293333c0-11.851852-9.576296-21.333333-21.333334-21.333334z"  horiz-adv-x="1024" />

    
    <glyph glyph-name="tupian" unicode="&#58912;" d="M91.428571 164.571429a18.285714 18.285714 0 0 0-11.702857 32.548571l201.142857 164.571429a18.285714 18.285714 0 0 0 23.04 0l169.325715-135.314286 207.725714 242.834286a18.285714 18.285714 0 0 0 25.6 1.828571l237.714286-201.142857a18.285714 18.285714 0 0 0-23.405715-27.794286l-223.817142 189.44-207.725715-242.468571a18.285714 18.285714 0 0 0-25.234285-2.194286L292.571429 324.022857l-189.44-155.428571a20.48 20.48 0 0 0-11.702858-4.022857zM932.571429 0h-841.142858A18.285714 18.285714 0 0 0 73.142857 18.285714V749.714286a18.285714 18.285714 0 0 0 18.285714 18.285714h841.142858a18.285714 18.285714 0 0 0 18.285714-18.285714v-731.428572a18.285714 18.285714 0 0 0-18.285714-18.285714zM109.714286 36.571429h804.571428v694.857142H109.714286zM438.857143 438.857143a91.428571 91.428571 0 1 0 91.428571 91.428571 91.428571 91.428571 0 0 0-91.428571-91.428571z m0 146.285714a54.857143 54.857143 0 1 1 54.857143-54.857143A54.857143 54.857143 0 0 1 438.857143 585.142857z"  horiz-adv-x="1024" />

    
    <glyph glyph-name="downarrow" unicode="&#58922;" d="M614.4 384v512h-204.8v-512h-204.8l307.2-512 307.2 512z"  horiz-adv-x="1024" />

    
    <glyph glyph-name="shangjiantou" unicode="&#59224;" d="M445.956283 757.18845L240.916794 402.099847c-11.329675-19.52757-12.066565-44.213367 0-65.122605 12.066565-20.909238 33.896915-32.607358 56.464154-32.607358h89.71629v-275.043987c0-31.96258 25.975353-57.937933 57.937933-57.937933h134.021769c32.054691 0 57.937933 25.975353 57.937933 57.937933V304.369884h83.45273c24.685797 0 48.634704 12.803454 61.806602 35.739138 13.171899 22.843573 12.342898 50.016371 0 71.386166L582.833498 757.18845c-13.632455 23.580462-39.239363 39.515697-68.438607 39.515697-29.199244 0-54.898264-15.935234-68.438608-39.515697z"  horiz-adv-x="1024" />

    
    <glyph glyph-name="xianshi" unicode="&#58893;" d="M931.9 357c-10.9 10.9-28.7 10.9-39.6 0l-75.1-75.1c-169-169-444.1-169-613.1 0l-71.3 71.3c-10.9 10.9-28.7 10.9-39.6 0-10.9-10.9-10.9-28.7 0-39.6l71.3-71.3c46.5-46.5 101-82.6 161.8-107.1 58.7-23.7 120.7-35.7 184.4-35.7s125.7 12 184.4 35.7c60.8 24.5 115.2 60.6 161.8 107.1l75.1 75.1c10.8 10.9 10.8 28.7-0.1 39.6zM132.8 411.4l71 71c169.2 169.2 444.6 169.2 613.8 0l74.6-74.6c5.5-5.5 12.6-8.2 19.8-8.2s14.3 2.7 19.8 8.2c10.9 10.9 10.9 28.7 0 39.6L857.2 522c-46.6 46.6-101.1 82.7-162 107.2-58.7 23.7-120.8 35.7-184.6 35.7s-125.8-12-184.6-35.7c-60.9-24.6-115.4-60.7-162-107.2l-71-71c-10.9-10.9-10.9-28.7 0-39.6 11.1-10.9 28.8-10.9 39.8 0zM322 382.79999999999995c0-104.9 85.4-190.3 190.3-190.3s190.3 85.4 190.3 190.3-85.4 190.3-190.3 190.3c-105 0-190.3-85.4-190.3-190.3z m324.6 0c0-74.1-60.3-134.3-134.3-134.3-74.1 0-134.3 60.3-134.3 134.3s60.3 134.3 134.3 134.3c74 0 134.3-60.3 134.3-134.3z"  horiz-adv-x="1024" />

    
    <glyph glyph-name="tubiao-" unicode="&#58897;" d="M840.69 481.86c-13.25 11.42-25.78 22.21-35.08 32.14-24.12 25.72-54.21 47.51-88.4 64.69l62.65 73.05c5.1 5.94 4.41 14.89-1.53 19.98-5.94 5.1-14.89 4.41-19.99-1.53l-68.01-79.31c-50.34 20.56-107.72 31.8-167.16 31.8-85.7 0-167.65-23.18-230.76-65.28-6.51-4.34-8.27-13.14-3.93-19.66 4.34-6.51 13.14-8.27 19.66-3.93 58.51 39.02 134.87 60.51 215.04 60.51 52.38 0 102.91-9.22 147.68-26.17l-57.04-66.52c-10.64 7.84-19.96 12.01-22.46 13.06-21.8 10.65-45.23 16.05-69.67 16.05-87.63 0-158.92-71.29-158.92-158.92 0-17.22 2.74-34.16 8.15-50.36 1.98-5.94 7.51-9.69 13.44-9.69 1.49 0 3 0.24 4.49 0.73 7.42 2.48 11.43 10.51 8.96 17.93-4.44 13.29-6.69 27.22-6.69 41.38 0 72 58.57 130.57 130.57 130.57 20.21 0 39.58-4.49 57.57-13.34l1.01-0.45c0.09-0.04 6.82-2.79 15.03-8.57L345.7 189.01c-35.39 17.26-65.73 39.61-88.66 65.45-10.91 12.3-25.87 24.7-41.7 37.82-30.6 25.37-65.29 54.12-65.29 79.61 0 25.58 34.83 54.61 65.56 80.23 15.73 13.11 30.58 25.49 41.43 37.72 5.19 5.86 4.66 14.81-1.2 20.01-5.86 5.19-14.81 4.66-20.01-1.2-9.43-10.63-23.49-22.35-38.37-34.75-35.51-29.6-75.76-63.15-75.76-102 0-38.8 40.13-72.07 75.54-101.43 14.97-12.41 29.11-24.14 38.58-34.81 24.39-27.5 55.32-50.72 90.79-68.89l-88.05-102.68c-5.1-5.94-4.41-14.89 1.53-19.99 2.67-2.29 5.95-3.42 9.22-3.42 3.99 0 7.96 1.68 10.77 4.95l93.26 108.75c50.83-21.19 109.07-32.77 169.81-32.77 113.02 0 218.61 40.63 282.44 108.68 9.37 9.99 22 20.82 35.36 32.28 36.92 31.66 78.77 67.54 78.77 109.31 0.02 41.87-41.97 78.05-79.03 109.98zM822.52 284.1c-13.97-11.98-27.16-23.29-37.59-34.4-58.57-62.45-156.43-99.73-261.77-99.73-52.57 0-104.41 9.39-150.29 27.18l56.2 65.53c27.08-19.49 58.94-29.76 92.61-29.76 87.63 0 158.92 71.29 158.92 158.92 0 25.99-6.42 51.79-18.56 74.59-3.68 6.91-12.26 9.53-19.17 5.85-6.91-3.68-9.53-12.26-5.85-19.17 9.97-18.72 15.24-39.91 15.24-61.27 0-72-58.57-130.57-130.57-130.57-26.84 0-52.27 7.93-74.07 23.02l250.59 292.22c33.81-16.13 63.4-37.01 86.74-61.9 10.34-11.02 23.42-22.29 37.26-34.22 32.44-27.95 69.21-59.63 69.21-88.5-0.02-28.74-36.62-60.11-68.9-87.79z"  horiz-adv-x="1024" />

    
    <glyph glyph-name="ziyuanxhdpi" unicode="&#58926;" d="M808.43536 525.761614H215.56464A127.218476 127.218476 0 0 1 88.889833 399.086806V-1.053358000000003a126.946642 126.946642 0 0 1 126.674807-126.402973h592.87072A126.946642 126.946642 0 0 1 935.110167-1.053358000000003V399.086806a127.218476 127.218476 0 0 1-126.674807 126.674808z m-244.650916-347.947969v-131.295992h-104.384391v131.567826a105.743563 105.743563 0 1 0 105.199894 0zM790.766127 522.227767h-81.550305v95.142023a197.079904 197.079904 0 0 1-394.159809 0v-95.142023h-81.550306v95.142023a278.63021 278.63021 0 0 0 557.26042 0z"  horiz-adv-x="1024" />

    
    <glyph glyph-name="yonghu" unicode="&#58976;" d="M502.178909 857.367273c-131.072 0-237.521455-104.168727-237.521454-232.727273s106.402909-232.727273 237.521454-232.727273c131.165091 0 237.568 104.168727 237.568 232.727273s-106.309818 232.727273-237.568 232.727273z m0 0c-131.072 0-237.521455-104.168727-237.521454-232.727273s106.402909-232.727273 237.521454-232.727273c131.165091 0 237.568 104.168727 237.568 232.727273s-106.309818 232.727273-237.568 232.727273zM413.184 314.321455c-169.472 0-306.874182-134.609455-306.874182-300.590546v-19.316364c0-67.909818 137.402182-67.956364 306.874182-67.956363h197.957818c169.425455 0 306.781091 2.513455 306.781091 67.956363v19.316364c0 165.981091-137.355636 300.590545-306.781091 300.590546H413.184z m0 0"  horiz-adv-x="1024" />

    
    <glyph glyph-name="jiazai" unicode="&#58990;" d="M533.712538 794.148369c13.248955 7.183654 30.638839 1.148579 38.658739-13.420235l73.095947-132.862338c8.060201-14.558738 3.737918-32.351632-9.511037-39.535285s-30.648914-1.148579-38.658739 13.420234l-73.106023 132.862338c-8.009825 14.558738-3.727843 32.351632 9.521113 39.535286zM700.347117 885.611499c-8.956898 12.090301-27.26363 13.883696-40.673789 4.030101L536.815715 799.649456c-13.410159-9.82337-17.047325-27.727091-8.060201-39.787167s27.273705-13.883696 40.683864-4.030101L692.266766 845.824332c13.410159 9.82337 17.047325 27.727091 8.080351 39.787167zM485.804718-26.148359c-13.248955-7.183654-30.648914-1.148579-38.658739 13.420235l-73.106022 132.862338c-8.009825 14.558738-3.727843 32.351632 9.521112 39.535285s30.648914 1.148579 38.658739-13.420234l73.106023-132.862338c8.009825-14.558738 3.727843-32.351632-9.521113-39.535286zM319.160063-117.611489c8.966974-12.090301 27.273705-13.883696 40.683865-4.030101l122.857613 89.982069c13.410159 9.82337 17.047325 27.727091 8.060201 39.787167s-27.273705 13.883696-40.683865 4.0301L327.25049-77.824322c-13.410159-9.82337-17.017099-27.727091-8.090427-39.787167zM462.470436-32.485692a32.381857 32.381857 0 0 0-4.0301 0.251882A424.168076 424.168076 0 0 0 195.063194 105.887808a418.878569 418.878569 0 0 0-39.404307 507.520629 423.744915 423.744915 0 0 0 174.825759 152.488927 32.240804 32.240804 0 0 0 27.49536-58.325629 359.333834 359.333834 0 0 1-148.247246-129.305774 354.366735 354.366735 0 0 1 33.389382-429.387056A359.756995 359.756995 0 0 1 466.399784 31.744035a32.240804 32.240804 0 0 0-3.969649-64.229727zM660.852133-6.511694a32.240804 32.240804 0 0 0-12.191054 62.103848 358.678943 358.678943 0 0 1 160.408074 129.164721 354.376811 354.376811 0 0 1-31.29373 440.590735 359.36406 359.36406 0 0 1-229.927308 114.777262 32.243826 32.243826 0 0 0 6.297032 64.17935 423.785216 423.785216 0 0 0 271.135085-135.371075 418.868494 418.868494 0 0 0 36.915721-520.719208A423.029572 423.029572 0 0 0 673.033111-4.103709a32.109826 32.109826 0 0 0-12.180978-2.407985z"  horiz-adv-x="1024" />

    
    <glyph glyph-name="xiugai1" unicode="&#59064;" d="M150.130688 271.517696L686.3872 807.68512c31.736832 31.760384 71.737344 32.330752 101.890048 2.154496l149.618688-149.588992c30.164992-30.1824 29.58848-70.124544-2.171904-101.890048L399.492096 22.185984l-283.469824-83.968c-39.259136-9.1648-59.005952 10.570752-49.85344 49.876992l83.961856 283.42272z m55.421952-44.338176l-61.966336-211.544064 211.585024 61.960192-149.618688 149.583872z m673.52576 358.708224c25.921536 25.703424 24.267776 25.326592-2.766848 52.719616l-111.013888 111.0016c-26.409984 27.981824-28.91776 28.335104-52.72576 2.7904l-58.269696-58.27584L820.80768 527.635456l58.27072 58.252288M404.559872 111.439872l374.624256 374.559744-166.52288 166.499328-374.606848-374.565888c16.126976-16.162816 109.536256-109.50656 166.505472-166.493184"  horiz-adv-x="1024" />

    
    <glyph glyph-name="dizhi" unicode="&#59065;" d="M512-30.579c-209.912 0-405.536 44.438-405.536 129.403 0 75.081 146.466 106.582 216.695 116.631a16.047 16.047 0 0 0 2.509 0.182c8.713 0 16.221-6.501 17.458-15.115 1.37-9.604-5.33-18.563-14.967-19.967-149.188-21.386-186.448-60.593-186.448-81.73 0-39.307 130.41-94.124 370.289-94.124 239.881 0 370.307 54.817 370.307 94.124 0 21.303-37.789 60.708-188.396 82.027-9.637 1.354-16.369 10.297-15.016 19.901 1.221 8.663 8.779 15.181 17.541 15.181 0.793 0 1.602-0.049 2.408-0.165 70.842-10.016 218.693-41.468 218.693-116.944 0.033-49.438-54.768-79.619-114.916-96.236-76.433-21.09-182.355-33.168-290.621-33.168z m-12.03 139.65c-9.769 9.142-239.252 226.002-239.252 438.226 0 138.562 112.703 251.282 251.281 251.282 138.579 0 251.284-112.72 251.284-251.282 0-206.283-229.32-428.704-239.088-438.077l-12.047-11.518-12.178 11.369zM512 763.299c-119.105 0-216.018-96.879-216.018-215.969 0-168.313 164.353-348.194 214.73-399.332l1.139-1.155 1.124 1.172c50.461 52.243 215.061 235.474 215.061 399.315-0.001 119.09-96.928 215.969-216.036 215.969z m0-326.132c-65.146 0-118.148 52.986-118.148 118.15 0 65.147 53.002 118.149 118.148 118.149 65.147 0 118.151-53.002 118.151-118.149 0-65.164-53.004-118.15-118.151-118.15z m-0.016 201.019c-45.692 0-82.87-37.178-82.87-82.87 0-45.725 37.178-82.919 82.87-82.919 45.725 0 82.918 37.194 82.918 82.919 0.001 45.693-37.193 82.87-82.918 82.87z"  horiz-adv-x="1024" />

    
    <glyph glyph-name="youjian1" unicode="&#58880;" d="M845.84375-9.75H178.15625c-72.5625 0-131.53125 58.96875-131.53125 131.53125V646.21875c0 72.5625 59.0625 131.53125 131.53125 131.53125H845.75c72.5625 0 131.53125-58.96875 131.53125-131.53125v-524.4375c0.09375-72.5625-58.96875-131.53125-131.4375-131.53125zM178.15625 726.65625c-44.34375 0-80.4375-36.09375-80.4375-80.4375v-524.4375c0-44.34375 36.09375-80.4375 80.4375-80.4375H845.75c44.34375 0 80.34375 36.09375 80.34375 80.4375V646.21875c0 44.34375-36.09375 80.4375-80.34375 80.4375H178.15625zM511.90625 341.15625c-3.09375 0-6.09375 0.9375-8.8125 2.71875l-438.375 305.625c-6.9375 4.875-8.625 14.4375-3.84375 21.375 4.875 6.9375 14.4375 8.625 21.375 3.84375l429.65625-299.4375L941.75 674.625c6.9375 4.875 16.5 3.09375 21.375-3.84375 4.875-6.9375 3.09375-16.5-3.84375-21.375L520.71875 343.875a15.75 15.75 0 0 0-8.8125-2.71875z"  horiz-adv-x="1024" />

    
    <glyph glyph-name="lianxihaoma" unicode="&#59014;" d="M885.333333-125.866667h-14.933333c-153.6 19.2-296.533333 70.4-422.4 149.333334-115.2 74.666667-217.6 177.066667-292.266667 292.266666-83.2 130.133333-134.4 277.333333-153.6 426.666667-4.266667 36.266667 8.533333 74.666667 32 102.4C57.6 872.533333 89.6 891.733333 128 896h153.6c70.4 0 130.133333-51.2 138.666667-121.6 4.266667-42.666667 14.933333-83.2 32-121.6 19.2-51.2 4.266667-106.666667-32-149.333333l-32-32c55.466667-87.466667 130.133333-157.866667 213.333333-213.333334l32 32c36.266667 36.266667 98.133333 51.2 149.333333 32 36.266667-14.933333 78.933333-23.466667 121.6-27.733333 70.4-8.533333 121.6-70.4 121.6-138.666667v-138.666666c0-36.266667-14.933333-74.666667-42.666666-98.133334-23.466667-32-61.866667-44.8-98.133334-44.8zM281.6 802.133333H140.8c-12.8 0-27.733333-8.533333-36.266667-17.066666-4.266667-10.666667-8.533333-19.2-8.533333-34.133334 14.933333-134.4 59.733333-268.8 134.4-381.866666 70.4-106.666667 157.866667-200.533333 264.533333-264.533334 115.2-74.666667 245.333333-121.6 386.133334-134.4h4.266666c14.933333 0 23.466667 4.266667 32 14.933334 8.533333 8.533333 14.933333 19.2 14.933334 32v138.666666c0 23.466667-19.2 46.933333-42.666667 46.933334-46.933333 4.266667-98.133333 19.2-138.666667 36.266666-19.2 4.266667-36.266667 0-51.2-8.533333L637.866667 170.666667c-14.933333-14.933333-36.266667-19.2-55.466667-8.533334-125.866667 70.4-228.266667 172.8-296.533333 296.533334-8.533333 19.2-4.266667 42.666667 8.533333 55.466666l59.733333 55.466667c14.933333 14.933333 19.2 32 8.533334 51.2-19.2 46.933333-27.733333 93.866667-36.266667 138.666667 0 25.6-21.333333 42.666667-44.8 42.666666z m0 0"  horiz-adv-x="1026" />

    
    <glyph glyph-name="huifu" unicode="&#58911;" d="M203.66 896C89.101 896 0 806.899 0 688.092v-398.826c0-114.598 89.101-203.7 199.413-203.7h190.958l301.256-203.673c8.482-4.247 21.21-8.482 29.692-8.482 12.742 0 21.223 4.235 29.705 8.482 16.976 8.494 29.705 29.705 25.458 50.928l-16.964 152.797h97.583c110.325 0 199.414 93.349 199.414 203.674V692.327C1056.515 806.899 967.413 896 857.1 896zM80.646 705.055c0 55.163 46.616 101.844 101.83 101.844H869.83c55.163 0 101.843-46.681 101.843-101.844v-424.31c0-55.162-46.616-101.83-101.843-101.83H704.42c-16.975 0-33.951-4.247-42.433-16.976s-12.729-25.457-12.729-42.433l12.73-101.83-229.196 156.992c-8.482 4.247-16.977 8.481-29.705 8.481H182.45c-55.162 0-101.83 46.617-101.83 101.844zM835.891 514.175a63.657 63.657 0 1 1-63.657-63.643 63.657 63.657 0 0 1 63.657 63.643z m-487.954 0a63.657 63.657 0 1 1-63.657-63.643 63.657 63.657 0 0 1 63.657 63.643z m241.847 0a63.644 63.644 0 1 1-63.644-63.643 63.644 63.644 0 0 1 63.644 63.643z"  horiz-adv-x="1057" />

    
    <glyph glyph-name="pinglun" unicode="&#58945;" d="M949.57 683.326l-41.8-41.517-139.205 138.348 41.801 41.459c15.34 15.283 39.523 16.084 53.893 1.768l87.024-86.454c14.427-14.313 13.628-38.324-1.712-53.604z m-369.197-366.92L441.17 454.756l306.239 304.299 139.205-138.349-306.24-304.3z m-19.388-19.275l-194.863-55.315 55.66 193.667L560.984 297.13zM236.552 717.88c-48.133 0-87.082-38.949-87.082-87.024v-522.372c0-48.063 38.963-87.026 87.026-87.026h522.486c48.064 0 87.028 38.963 87.028 87.028V456.752l87.08 87.028V79.46c0-80.125-64.955-145.078-145.079-145.078H207.468c-80.125 0-145.078 64.954-145.078 145.078V659.885c0 80.125 64.954 145.079 145.078 145.079h464.436L584.82 717.88H236.55v0.001z"  horiz-adv-x="1024" />

    
    <glyph glyph-name="zhongzhi" unicode="&#58886;" d="M1164.660892 381.710414c0-189.188885-153.358436-342.547321-342.547322-342.547321H422.840413l77.792497-77.723987a51.7589 51.7589 0 1 0-73.236618-73.202363l-158.051333 157.94857c-2.226558 1.061897-4.624389 1.335935-6.748183 2.740378-7.878588 1.88401-15.174846 5.13821-22.813651 7.536041v59.740253l43.640528 42.064811c0.342547-0.102764 0.65084-0.308293 0.993388-0.411057l39.221668 39.187414 0.308293 0.308293 101.154223 101.119969a51.82741 51.82741 0 0 0 73.236618-73.202363L414.961825 141.927289h364.847151C935.599498 141.927289 1061.896695 249.281619 1061.896695 381.710414c0 23.841294-4.213332 46.791964-11.852137 68.509464h3.699511c-1.096151 4.144823-2.569105 8.152626-2.569105 12.639996a51.382098 51.382098 0 0 0 102.764196 0c0-4.48737-1.472953-8.495174-2.53485-12.639996h6.37138c4.48737-22.128557 6.885201-45.044973 6.885202-68.509464z m-425.135481 84.33515a51.724645 51.724645 0 1 0-73.236617 73.168108L748.602915 621.493538H384.851915C229.061394 621.493538 102.764196 514.139208 102.764196 381.710414c0-22.710887 4.247587-44.462642 11.201298-65.28952l-15.209101-0.411056A51.382098 51.382098 0 1 0 0 296.073583c0 8.666447 2.706124 16.476526 6.474144 23.635766A333.230034 333.230034 0 0 0 0 381.710414C0 570.899299 153.358436 724.257735 342.547321 724.257735h407.151746l-83.410273 83.341763A51.7589 51.7589 0 1 0 739.525411 880.80186l170.896859-170.794094a51.724645 51.724645 0 0 0 0-73.202362l-170.896859-170.75984z"  horiz-adv-x="1165" />

    
    <glyph glyph-name="cha" unicode="&#58940;" d="M765.814384 109.077669 569.691762 301.305739 765.790847 493.499016 705.461405 552.656347 509.349017 360.449767 313.247885 552.656347 252.919466 493.499016 449.010364 301.313925 252.868299 109.077669 313.247885 49.97048 509.355157 242.17092 705.461405 49.97048Z"  horiz-adv-x="1024" />

    
    <glyph glyph-name="gou" unicode="&#59248;" d="M764.381 525.91l-306.354-306.3c-7.934-7.934-18.297-11.899-28.716-11.899s-20.783 3.965-28.716 11.899l-153.151 153.15c-15.867 15.867-15.867 41.568 0 57.431s41.568 15.867 57.431 0l124.437-124.437 277.634 277.588c15.867 15.867 41.568 15.867 57.431 0 15.867-15.865 15.867-41.567 0.001-57.431z"  horiz-adv-x="1024" />

    
    <glyph glyph-name="jia" unicode="&#59447;" d="M558.5 686.5h-93v-256h-256v-93h256v-256h93v256h256v93h-256zM856.1 896H167.9C75.2 896 0 820.8 0 728.1v-688.2C0-52.8 75.2-128 167.9-128h688.2c92.7 0 167.9 75.2 167.9 167.9V728.1C1024 820.8 948.8 896 856.1 896zM992 39.9C992-35 931-96 856.1-96H167.9C93-96 32-35 32 39.9V728.1C32 803 93 864 167.9 864h688.2C931 864 992 803 992 728.1v-688.2z"  horiz-adv-x="1024" />

    
    <glyph glyph-name="fanhui" unicode="&#59038;" d="M1006.00448-60.8s-9.6-25.6-22.4 0c0 0-150.4 451.2-512 336v-140.8s-6.4-83.2-76.8-28.8L33.20448 419.2s-76.8 41.6 3.2 99.2l361.6 310.4s54.4 38.4 67.2-25.6v-150.4c3.2-3.2 681.6-35.2 540.8-713.6m0 0z"  horiz-adv-x="1025" />

    
    <glyph glyph-name="weidu" unicode="&#58896;" d="M891.948987 405.11797c0-206.340485-167.247118-373.658212-373.658212-373.658212-206.339462 0-373.58658 167.31875-373.58658 373.658212S311.95029 778.703527 518.289752 778.703527C724.701868 778.703527 891.948987 611.457432 891.948987 405.11797z"  horiz-adv-x="1024" />

    
    <glyph glyph-name="caidan" unicode="&#58989;" d="M284.444444 2.844444h694.044445c22.755556 0 39.822222 17.066667 39.822222 39.822223 0 22.755556-17.066667 39.822222-39.822222 39.822222H284.444444c-22.755556 0-39.822222-17.066667-39.822222-39.822222 0-17.066667 17.066667-39.822222 39.822222-39.822223z m0 341.333334h694.044445c28.444444 0 45.511111 17.066667 45.511111 39.822222 0 22.755556-17.066667 39.822222-39.822222 39.822222H284.444444c-22.755556 5.688889-39.822222-11.377778-39.822222-39.822222 0-22.755556 17.066667-39.822222 39.822222-39.822222z m0 335.644444h694.044445c28.444444 0 45.511111 22.755556 45.511111 45.511111s-17.066667 39.822222-39.822222 39.822223H284.444444c-22.755556 0-39.822222-17.066667-39.822222-39.822223 0-22.755556 17.066667-45.511111 39.822222-45.511111zM62.577778-14.222222c34.133333 0 62.577778 28.444444 62.577778 62.577778s-28.444444 62.577778-62.577778 62.577777c-34.133333 0-62.577778-28.444444-62.577778-62.577777S28.444444-14.222222 62.577778-14.222222z m62.577778 398.222222c0 34.133333-28.444444 62.577778-62.577778 62.577778C28.444444 452.266667 0 423.822222 0 384c0-34.133333 28.444444-62.577778 62.577778-62.577778 34.133333 0 62.577778 28.444444 62.577778 62.577778zM62.577778 662.755556c34.133333 0 62.577778 28.444444 62.577778 62.577777 0 34.133333-28.444444 62.577778-62.577778 62.577778C28.444444 787.911111 0 759.466667 0 725.333333c0-34.133333 28.444444-62.577778 62.577778-62.577777z"  horiz-adv-x="1024" />

    
    <glyph glyph-name="wodexiaoxi" unicode="&#59551;" d="M807.822222-14.222222H216.177778C96.711111-14.222222 0 82.488889 0 201.955556V566.044444C0 685.511111 96.711111 782.222222 216.177778 782.222222h597.333333c113.777778 0 210.488889-96.711111 210.488889-216.177778v-369.777777c0-113.777778-96.711111-210.488889-216.177778-210.488889zM216.177778 696.888889c-68.266667 0-125.155556-56.888889-125.155556-125.155556v-369.777777c0-68.266667 56.888889-125.155556 125.155556-125.155556h597.333333c68.266667 0 125.155556 56.888889 125.155556 125.155556V566.044444c0 68.266667-56.888889 125.155556-125.155556 125.155556H216.177778zM512 338.488889c-5.688889 0-11.377778 0-17.066667 5.688889l-341.333333 170.666666c-22.755556 11.377778-34.133333 39.822222-22.755556 56.888889 11.377778 22.755556 34.133333 28.444444 56.888889 17.066667L512 429.511111l324.266667 159.288889c22.755556 11.377778 45.511111 0 56.888889-17.066667 11.377778-22.755556 0-45.511111-17.066667-56.888889l-341.333333-170.666666c-11.377778 0-17.066667-5.688889-22.755556-5.688889z"  horiz-adv-x="1024" />

    
    <glyph glyph-name="art2" unicode="&#59636;" d="M78.762667 659.690667v-708.885334h708.906666V659.690667H78.762667z m0 78.762666h708.906666a78.976 78.976 0 0 0 78.762667-78.762666v-708.885334a78.976 78.976 0 0 0-78.762667-78.762666H78.762667A78.976 78.976 0 0 0 0-49.19466699999998V659.690667a78.976 78.976 0 0 0 78.762667 78.762666z m157.546666-236.288h393.834667c23.616 0 39.381333-15.765333 39.381333-39.402666 0-23.616-15.765333-39.36-39.381333-39.36H236.309333c-23.637333 0-39.381333 15.744-39.381333 39.36 0 23.637333 15.744 39.402667 39.381333 39.402666z m0-157.525333h393.834667c23.616 0 39.381333-15.765333 39.381333-39.402667 0-23.616-15.765333-39.381333-39.381333-39.381333H236.309333c-23.637333 0-39.381333 15.765333-39.381333 39.381333 0 23.637333 15.744 39.402667 39.381333 39.402667z m0-157.546667h393.834667c23.616 0 39.381333-15.744 39.381333-39.381333s-15.765333-39.381333-39.381333-39.381333H236.309333c-23.637333 0-39.381333 15.744-39.381333 39.381333s15.744 39.381333 39.381333 39.381333z m39.381334 630.122667c-23.637333 0-39.381333 15.765333-39.381334 39.381333 0 23.637333 15.744 39.381333 39.381334 39.381334H905.813333c66.965333 0 118.165333-51.2 118.165334-118.144v-630.122667c0-23.637333-15.765333-39.381333-39.381334-39.381333-23.637333 0-39.402667 15.744-39.402666 39.381333V777.834667c0 23.637333-15.744 39.381333-39.381334 39.381333H275.690667z"  horiz-adv-x="1024" />

    
    <glyph glyph-name="you" unicode="&#59030;" d="M245.237551 827.350204c-36.466939 36.989388 31.555918 92.16 62.798367 52.244898 154.958367-154.435918 309.603265-309.394286 464.352653-464.143673 20.897959-15.15102 21.002449-47.647347 0-62.902858C617.534694 197.694694 462.785306 42.631837 307.617959-112.013061c-31.346939-38.974694-98.638367 15.673469-62.589388 52.453877C391.732245 89.129796 540.316735 236.042449 687.751837 384 540.421224 531.957551 391.836735 678.765714 245.237551 827.350204z"  horiz-adv-x="1024" />

    
    <glyph glyph-name="zuotubiao" unicode="&#58900;" d="M696.46666667 832c9.2 0 18.5-3.6 25.7-10.8 14.4-14.4 14.39999999-37.5 0-51.9L336.76666667 384l385.29999999-385.3c14.4-14.4 14.39999999-37.5 1e-8-51.9a36.576 36.576 0 0 0-51.9 1e-8l-411 410.99999999a36.576 36.576 0 0 0 0 51.9l411 410.99999999c7.8 7.2 17 11.3 26.3 11.30000001z"  horiz-adv-x="1024" />

    
    <glyph glyph-name="wangluoanquan" unicode="&#59342;" d="M512 886.857143C234.276571 886.857143 9.142857 661.723429 9.142857 384S234.276571-118.857143 512-118.857143 1014.857143 106.276571 1014.857143 384 789.723429 886.857143 512 886.857143z m0-18.285714c267.629714 0 484.571429-216.941714 484.571429-484.571429S779.629714-100.571429 512-100.571429 27.428571 116.370286 27.428571 384 244.370286 868.571429 512 868.571429zM742.875429 359.862857H520.448v-290.304s-155.373714 74.971429-223.122286 290.614857h223.122286V639.853714c125.220571-105.508571 257.682286-73.636571 257.682286-73.636571-2.432-122.624-35.236571-206.390857-35.236572-206.390857l-0.018285 0.018285z m74.276571 286.354286c-147.529143-108.251429-298.404571 57.545143-298.404571 57.545143-159.232-169.142857-296.685714-59.245714-296.685715-59.245715C188.525714 159.049143 518.747429 20.297143 518.747429 20.297143c358.710857 189.494857 298.422857 625.92 298.422857 625.92z"  horiz-adv-x="1024" />

    
    <glyph glyph-name="pingmiansheji" unicode="&#58996;" d="M1000.1 153.8L763.2 390.7l76.8 76.8c5.3 5.3 5.3 13.9 0 19.2-5.3 5.3-13.9 5.3-19.2 0L743.9 410 485.1 151.2 320.3-13.7 100 206.6l583.2 583.2 220.3-220.3-41.9-41.9c-5.3-5.3-5.3-13.9 0-19.2 5.3-5.3 13.9-5.3 19.2 0l62.3 62.3 43.6 43.6c30.7 30.7 30.7 80.8 0 111.5L839.4 872.9c-30.7 30.7-80.8 30.7-111.5 0l-64-64-159.5-159.5L312.6 841.2c-14.9 14.9-34.7 23.1-55.8 23.1-21.1 0-40.9-8.2-55.8-23.1L53.9 693.9c-30.7-30.7-30.7-80.8 0-111.5L81 555.3l106.4 106.4c1.1 1.1 3 1.1 4.1 0 1.1-1.1 1.1-3 0-4.1L85.1 551.2l83.7-83.7 106.4 106.4c0.7 0.7 1.5 0.8 2 0.8s1.3-0.1 2-0.8c0.7-0.7 0.8-1.5 0.8-2s-0.1-1.3-0.8-2L172.9 463.4l72.7-72.7L72.2 217.3l-6.1-6.1c-0.7-0.7-1.2-1.5-1.4-2.5L1.7-74c-2.7-12 1-24.3 9.7-32.9 6.7-6.6 15.6-10.2 24.7-10.2 2.8 0 5.6 0.3 8.4 1l278 67.1c0.9 0.2 1.7 0.7 2.4 1.3l14.2 14.2 165.3 165.4 94.6-94.6 9.7 11L713 152.6c1.1 1.1 3 1.1 4.1 0 0.5-0.5 0.8-1.3 0.8-2 0-0.8-0.3-1.5-0.8-2L612.9 44.3l-11.1-9.8 85-85 9.7 11 104.3 104.3c0.7 0.7 1.8 1 2.8 0.7 1-0.3 1.8-1 2-2 0.3-1 0-2.1-0.7-2.8L700.7-43.4l-11.1-9.8 51.7-51.7c15.4-15.4 35.6-23.1 55.8-23.1 20.2 0 40.4 7.7 55.8 23.1l147.2 147.2c14.9 14.9 23.1 34.7 23.1 55.8 0 21-8.2 40.8-23.1 55.7z m-253 699.9c20.1 20.1 52.9 20.1 73.1 0l147.2-147.2c20.1-20.1 20.1-52.9 0-73.1l-43.6-43.6L703.5 810.1l43.6 43.6zM211.4 463.4l87.1 87.2c5.7 5.7 8.8 13.2 8.8 21.3 0 8-3.1 15.6-8.8 21.3-5.7 5.7-13.2 8.8-21.3 8.8-8 0-15.6-3.1-21.3-8.8L168.8 506l-45.3 45.3 87.2 87.2c11.7 11.7 11.7 30.8 0 42.5s-30.8 11.7-42.5 0L81 593.7l-7.9 7.9c-20.1 20.1-20.1 52.9 0 73.1L220.3 822c9.8 9.8 22.7 15.1 36.5 15.1s26.8-5.4 36.5-15.1l190.2-190.2-220.1-220.4-52 52z m-173.3-553c-4-1-6.7 1.2-7.6 2.1-1 1-3.1 3.6-2.2 7.6l58.2 260.7 208.4-208.4-256.8-62z m942.7 151.1L833.6-85.7c-20.1-20.1-52.9-20.1-73.1 0l-31.8 31.8 95.4 95.4c7.6 7.6 10.6 18.7 7.8 29-2.8 10.4-10.9 18.5-21.3 21.3-10.3 2.8-21.5-0.2-29-7.8l-95.4-95.4-45.3 45.3 95.4 95.4c5.7 5.7 8.8 13.2 8.8 21.3 0 8-3.1 15.6-8.8 21.3-5.7 5.7-13.2 8.8-21.3 8.8-7.9 0-15.7-3.2-21.3-8.8l-95.4-95.4-74.8 74.7 220.3 220.3 236.9-236.9c9.8-9.8 15.1-22.7 15.1-36.5 0.2-13.8-5.2-26.8-15-36.6z"  horiz-adv-x="1024" />

    
    <glyph glyph-name="yidongyingyong" unicode="&#58954;" d="M932.352 423.424H821.76c-28.672 0-52.224-23.552-52.224-52.224v-5.632c0-28.672 23.552-52.224 52.224-52.224h110.592c28.672 0 52.224 23.552 52.224 52.224V371.2c0 29.184-23.552 52.224-52.224 52.224z m0 130.56h-23.04V806.912c0 36.352-29.696 66.048-66.048 66.048H407.04c-36.352 0-66.048-29.696-66.048-66.048v-181.248C252.928 576 162.304 523.776 162.304 523.776 113.152 503.296 40.96 438.272 40.96 283.648c0-16.384 1.024-32.768 3.584-49.152 1.024-9.216 3.072-17.92 4.608-26.112 0.512-3.072 1.024-6.144 2.048-8.704 2.56-9.728 5.632-18.432 8.704-26.624 1.536-4.096 3.584-8.192 5.12-11.776 2.048-4.096 4.096-8.192 6.144-11.776 2.56-4.608 5.12-9.216 7.68-13.312l2.048-3.072c63.488-96.256 180.736-96.768 180.736-96.768h79.36v-75.264c0-36.352 29.696-66.048 66.048-66.048h435.712c36.352 0 66.048 29.696 66.048 66.048v91.648h23.04c28.672 0 52.224 23.552 52.224 52.224v5.632c0 28.672-23.552 52.224-52.224 52.224H821.248c-28.672 0-52.224-23.552-52.224-52.224v-5.632c0-28.672 23.552-52.224 52.224-52.224h41.472v-35.328H386.56V491.52c24.064 15.36 46.08 29.696 58.88 39.424 64 49.664 124.928 89.088 133.12 124.416 10.752 46.592-25.088 85.504-86.528 53.248-19.456-10.24-59.392-32.256-104.96-57.856V768h476.16v-214.016H821.76c-28.672 0-52.224-23.552-52.224-52.224v-5.632c0-28.672 23.552-52.224 52.224-52.224h110.592c28.672 0 52.224 23.552 52.224 52.224v5.632c0 28.672-23.552 52.224-52.224 52.224z m-307.2-560.128c18.432 0.512 33.28-13.824 34.304-31.744 0.512-18.432-13.824-33.28-31.744-34.304h-2.048c-18.432 0.512-32.768 15.872-32.256 33.792 0.512 17.92 14.336 31.744 31.744 32.256z m69.632 815.616H555.52c-4.608 0-8.192 3.584-8.192 8.192 0 4.608 3.584 8.192 8.192 8.192h139.264c4.608 0 8.192-3.584 8.192-8.192 0-4.608-3.584-8.192-8.192-8.192z m237.568-516.096H821.76c-28.672 0-52.224-23.552-52.224-52.224v-5.632c0-28.672 23.552-52.224 52.224-52.224h110.592c28.672 0 52.224 23.552 52.224 52.224v5.632c0 28.672-23.552 52.224-52.224 52.224z"  horiz-adv-x="1024" />

    
    <glyph glyph-name="ruanjian" unicode="&#58908;" d="M954.189 109.645H622.157v-178.176h130.841c16.026 0 29.492-12.928 29.492-29.466 0-16.563-12.928-30.003-29.492-30.003H271.002a29.491 29.491 0 0 0-29.492 29.491c0 16.538 12.928 29.978 29.492 29.978h130.33V109.645H69.811A69.837 69.837 0 0 0 0 179.456V826.189A70.17 70.17 0 0 0 69.811 896H954.19A69.837 69.837 0 0 0 1024 826.189v-646.733a69.837 69.837 0 0 0-69.811-69.811zM461.312-68.531h100.864V109.645H461.312v-178.176zM964.532 836.53H59.468v-667.417H964.53V836.53zM175.333 531.15L282.88 639.232c5.709 5.683 12.954 8.78 21.222 8.78 7.757 0 15.514-3.097 21.197-8.78 11.904-11.392 11.367-30.515 0-41.882l-92.057-92.083 92.057-92.032a30.157 30.157 0 0 0-0.512-42.419 28.16 28.16 0 0 0-20.685-8.78c-7.756 0-15.001 3.097-20.684 8.78l-107.06 107.06-1.024 1.023a59.52 59.52 0 0 0-5.708 4.66 29.286 29.286 0 0 0-8.781 21.196v1.05c0 8.269 3.097 15.513 8.78 21.197a23.347 23.347 0 0 0 5.71 4.147zM566.81 643.89a30.925 30.925 0 0 0 25.881 15.488c5.171 0 10.343-1.536 14.976-4.121 7.245-4.122 11.904-10.343 13.978-18.1 2.073-7.756 1.024-16.025-3.098-22.758L457.702 336.154a30.131 30.131 0 0 0-40.345-10.855 29.235 29.235 0 0 0-11.367 40.346L566.81 643.89z m123.11-41.907c0 8.294 3.098 15.514 8.78 21.222 5.684 5.684 13.44 8.781 21.198 8.781 7.756 0 15.001-3.097 20.684-8.78l107.06-107.06 1.05-0.512c2.047-1.05 4.12-2.585 5.682-4.147 5.684-5.683 8.781-13.44 8.781-21.197v-3.123c-0.512-7.245-3.61-13.952-8.78-19.123-1.562-1.536-3.098-2.586-5.172-5.683L741.094 354.278a30.08 30.08 0 0 0-21.196-8.806c-8.27 0-15.514 3.098-21.197 8.806a30.157 30.157 0 0 0-8.781 21.197c0 8.269 3.098 15.514 8.78 21.197l92.058 92.058-92.057 92.057a30.157 30.157 0 0 0-8.781 21.197z"  horiz-adv-x="1024" />

    
    <glyph glyph-name="shenglve" unicode="&#58888;" d="M64.5 384a108.5 108.5 0 1 1 217 0 108.5 108.5 0 1 1-217 0z m339 0a108.5 108.5 0 1 1 217 0 108.5 108.5 0 1 1-217 0zM851 492.5c-59.9 0-108.5-48.6-108.5-108.5S791.1 275.5 851 275.5 959.5 324.1 959.5 384c-0.1 59.9-48.6 108.5-108.5 108.5z"  horiz-adv-x="1024" />

    
    <glyph glyph-name="qianjin" unicode="&#58978;" d="M598.144 384.006l-289.824-289.83c-17.030-17.024-17.030-44.64 0-61.658l12.339-12.333c17.024-17.030 44.627-17.030 61.658 0l320.614 320.627c0.006 0.006 0.019 0.013 0.026 0.026l12.333 12.333c17.030 17.024 17.030 44.634 0 61.651l-12.333 12.346c-0.038 0.045-0.090 0.077-0.128 0.115l-320.525 320.531c-17.030 17.037-44.634 17.037-61.658 0l-12.339-12.333c-17.030-17.030-17.030-44.627 0-61.658l289.837-289.818z"  horiz-adv-x="1024" />

    
    <glyph glyph-name="qianjin-copy" unicode="&#58983;" d="M425.856 383.994l289.824 289.83c17.030 17.024 17.030 44.64 0 61.658l-12.339 12.333c-17.024 17.030-44.627 17.030-61.658 0l-320.614-320.627c-0.006-0.006-0.019-0.013-0.026-0.026l-12.333-12.333c-17.030-17.024-17.030-44.634 0-61.651l12.333-12.346c0.038-0.045 0.090-0.077 0.128-0.115l320.525-320.531c17.030-17.037 44.634-17.037 61.658 0l12.339 12.333c17.030 17.030 17.030 44.627 0 61.658l-289.837 289.818z"  horiz-adv-x="1024" />

    
    <glyph glyph-name="xiala1" unicode="&#58892;" d="M788.87 472.872l-247.54-270.69a38.955 38.955 0 0 0-29.262-13.24 38.955 38.955 0 0 0-29.264 13.242l-247.538 270.69c-12.083 12.762-15.819 31.364-9.574 47.795s21.32 27.904 38.836 29.465h494.876a45.761 45.761 0 0 0 38.97-29.4c6.314-16.496 2.58-35.03-9.505-47.862z"  horiz-adv-x="1024" />

    
    <glyph glyph-name="trh-member-home" unicode="&#58903;" d="M828.713936 860.114099l-713.545232-417.277913h273.734311v-477.365933a60.922575 60.922575 0 0 1 60.922576-60.922576h191.113284V285.93969000000004a60.922575 60.922575 0 0 0 60.922576 60.08802h250.366748a60.922575 60.922575 0 0 0 60.922575-60.08802v-382.226569h191.113285a60.922575 60.922575 0 0 1 60.922575 60.922576V442.00163h273.734311z"  horiz-adv-x="1654" />

    
    <glyph glyph-name="zengjia" unicode="&#59130;" d="M61.44 384a450.56 450.56 0 1 1 901.12 0 450.56 450.56 0 0 1-901.12 0zM1024 384c0-282.7776-229.2224-512-512-512S0 101.2224 0 384 229.2224 896 512 896s512-229.2224 512-512zM256.1024 435.2h511.7952a51.1488 51.1488 0 1 0 0-102.4H256.1024a51.1488 51.1488 0 1 0 0 102.4zM563.2 639.8976v-511.7952a51.1488 51.1488 0 1 0-102.4 0V639.8976a51.1488 51.1488 0 1 0 102.4 0z"  horiz-adv-x="1024" />

    
    <glyph glyph-name="xiugai" unicode="&#58953;" d="M960-19H357l46 55h557zM516.917 637.723l165.39-148.074-435.55-486.485-165.39 148.074zM717.5 531.9L553.6 678.6l73.9 82.5c20.3 22.7 55.3 24.7 78 4.3l82.7-74c22.1-19.8 24-53.9 4.2-76l-74.9-83.5zM84-12.3l-2.7 163.5 165.4-148.1z"  horiz-adv-x="1024" />

    
    <glyph glyph-name="shanchu" unicode="&#59053;" d="M519.62 895.99998C415.696002 895.99998 331.110004 813.531982 327.537004 710.179984H85.016008a48.913999 48.913999 0 0 1-48.913999-48.866999 48.913999 48.913999 0 0 1 48.913999-48.865999h54.009999v-547.79199c0-102.852998 69.821999-186.843996 155.909997-186.843996h439.199992c86.087998 0 155.909997 83.490998 155.909997 186.843996V611.899986h48.913999a48.913999 48.913999 0 0 1 48.913999 48.889999 48.913999 48.913999 0 0 1-48.913999 48.865999H711.203996A191.559996 191.559996 0 0 1 519.62 895.99998zM412.386002 718.919983c3.549 49.769999 46.627999 88.539998 99.851998 88.539999 53.223999 0 96.327998-38.745999 99.351998-88.539999H412.386002zM300.390004-33.126002c-30.981999 0-65.082999 39.149999-65.082999 95.040998v546.33999h575.487989v-546.83999c0-55.914999-34.077999-95.040998-65.059999-95.040998H300.389004v0.5zM368.116003 99.184996c24.362 0 44.269999 21.67 44.269999 48.818999V426.626989c0 27.147999-19.908 48.818999-44.269999 48.818999-24.338 0-44.269999-21.671-44.269999-48.818999v-278.622994c0-27.147999 19.36-48.818999 44.293999-48.818999z m154.933997 0c24.361 0 44.293999 21.67 44.293999 48.818999V426.626989c0 27.147999-19.933 48.818999-44.293999 48.818999-24.338 0-44.269999-21.671-44.269999-48.818999v-278.622994c0-27.147999 19.932-48.818999 44.292999-48.818999z m132.809997 0c24.338 0 44.269999 21.67 44.269999 48.818999V426.626989c0 27.147999-19.932 48.818999-44.269999 48.818999s-44.269999-21.671-44.269999-48.818999v-278.622994c0-27.147999 19.36-48.818999 44.269999-48.818999z"  horiz-adv-x="1024" />

    
    <glyph glyph-name="yingxingonggao" unicode="&#59048;" d="M124.928 380.3648l-8.2944-0.7168a137.6256 137.6256 0 0 1 125.5936-59.392l60.9792 5.12-24.9856 286.0544-60.9792-5.12A137.728 137.728 0 0 1 103.7824 525.824l8.2944 0.7168a73.3696 73.3696 0 0 0 12.8-146.176zM311.9104 223.744a175.7696 175.7696 0 0 0 90.9824-339.6096L311.9104 223.744zM332.8 650.24h-1.024l15.9232-181.7088L363.52 286.72h1.0752c28.9792 2.5088 81.408-14.3872 81.408-14.3872s312.7808-98.0992 410.2144-133.12a26.4192 26.4192 0 0 1 10.9056-1.28 27.1872 27.1872 0 0 1 24.2176 20.8896c25.6 118.2208 35.4816 227.1232 24.4224 353.8944 0 1.792-0.4096 3.4816-0.6144 5.12s0 3.4816-0.3072 5.12C903.7312 649.8304 875.008 755.3536 829.44 867.328a27.4432 27.4432 0 0 1-27.4944 16.384 26.6752 26.6752 0 0 1-10.5984-3.1232C701.44 829.44 410.5216 678.3488 410.5216 678.3488S361.8304 652.544 332.8 650.24z"  horiz-adv-x="1024" />

    
    <glyph glyph-name="jiaoliu" unicode="&#59211;" d="M868.9 716H384.7c-30.4 0-55.3-27.7-55.3-58.1v-401.2c0-30.4 24.9-58.1 58.1-58.1h262.8l85.8-63.6 47 63.6h85.8c30.4 0 58.1 24.9 58.1 58.1V657.9c0 30.4-24.9 58.1-58.1 58.1zM653.1 281.6h-47v47h47v-47z m74.7 207.5c-8.3-13.8-19.4-27.7-38.7-44.3-13.8-11.1-22.1-19.4-24.9-24.9-2.8-5.5-8.3-11.1-8.3-19.4-2.8-8.3-2.8-19.4-2.8-36h-38.7v13.8c0 16.6 2.8 30.4 5.5 41.5 2.8 8.3 8.3 16.6 16.6 27.7 5.5 5.5 13.8 16.6 27.7 27.7 13.8 13.8 22.1 22.1 27.7 30.4 2.8 8.3 5.5 16.6 5.5 24.9 0 16.6-5.5 30.4-19.4 41.5-11.1 11.1-27.7 19.4-44.3 19.4-16.6 0-30.4-5.5-41.5-16.6-11.1-11.1-19.4-27.7-22.1-52.6l-41.5 5.5c2.8 30.4 13.8 55.3 33.2 71.9 19.4 16.6 41.5 24.9 71.9 24.9 33.2 0 58.1-8.3 77.5-27.7 19.4-16.6 27.7-38.7 27.7-66.4-2.8-13.6-5.6-27.4-11.1-41.3z m0 0M536.9 140.5c0-24.9-19.4-44.3-41.5-44.3H301.7L238.1 52l-36 47h-63.6c-22.1 0-41.5 19.4-41.5 44.3V436.6c0 24.9 19.4 44.3 41.5 44.3l152.2 2.8v-251.8s-2.8-36 11.1-52.6c19.4-19.4 52.6-22.1 52.6-22.1H537v-16.7z m0 0"  horiz-adv-x="1024" />

    
    <glyph glyph-name="huodong" unicode="&#58968;" d="M497.863537 730.966293C419.907047 823.560154 371.224278 829.626313 252.548388 829.626313l0-414.053224c207.469192 103.513562 220.330104-13.423731 351.133196-1.61887 128.946814 11.648294 238.606353 110.952998 311.349097 208.725812C709.016631 575.049221 605.381295 603.272006 497.863537 730.966293zM128.332319 829.706131l82.809007-0.078795 0-828.066539-82.809007 0.044002L128.332319 829.706131z"  horiz-adv-x="1024" />

    


  </font>
</defs>
</svg>
