<?xml version="1.0" standalone="no"?>
<!DOCTYPE svg PUBLIC "-//W3C//DTD SVG 20010904//EN"
 "http://www.w3.org/TR/2001/REC-SVG-20010904/DTD/svg10.dtd">
<svg version="1.0" xmlns="http://www.w3.org/2000/svg"
 width="720.000000pt" height="400.000000pt" viewBox="0 0 720.000000 400.000000"
 preserveAspectRatio="xMidYMid meet">

<g transform="translate(0.000000,400.000000) scale(0.100000,-0.100000)"
fill="#000000" stroke="none">
<path d="M1883 3543 l-123 -4 0 -934 c0 -617 3 -935 10 -935 23 0 8 -19 -17
-23 -17 -2 -10 -5 20 -6 93 -2 45 -19 -80 -27 -145 -10 -1510 -9 -1620 1 l-73
7 0 -604 0 -605 3600 -2 3600 -2 0 1570 0 1571 -2597 -2 c-1429 -1 -2653 -4
-2720 -5z m1937 -333 c46 -46 58 -84 89 -281 25 -162 45 -225 99 -310 42 -66
53 -102 72 -229 6 -42 18 -82 27 -93 14 -15 15 -20 4 -27 -10 -5 -12 -19 -8
-45 8 -51 -37 -191 -69 -211 -28 -19 -54 -12 -114 30 -53 38 -143 89 -138 78
55 -107 67 -181 33 -206 -32 -24 -69 -19 -157 24 -65 32 -98 56 -153 115 -65
68 -76 75 -154 102 -62 21 -85 25 -88 16 -7 -21 -20 -15 -25 12 -4 17 1 29 15
38 20 13 20 15 4 37 -10 15 -17 44 -17 71 0 51 -20 70 -47 47 -21 -17 -13
-111 12 -138 11 -13 14 -20 6 -20 -21 0 -41 27 -49 67 l-8 38 -16 -30 c-24
-45 -32 -118 -18 -146 13 -23 12 -24 -7 -6 -11 9 -25 35 -32 57 -13 44 -7 62
36 114 37 44 73 133 68 164 -5 28 17 77 67 149 14 21 28 52 29 68 2 17 7 35
11 40 4 6 11 38 17 72 10 66 53 161 76 169 8 4 61 58 116 121 122 138 144 153
222 153 53 0 60 -3 97 -40z m2208 -114 c34 -18 65 -51 87 -95 14 -28 16 -47
10 -95 -15 -124 -15 -157 1 -163 8 -3 33 -41 55 -84 21 -44 43 -78 47 -78 27
4 52 -16 177 -141 l140 -140 127 6 127 7 11 -28 c8 -22 8 -30 -2 -36 -22 -14
-96 -22 -135 -15 -38 7 -38 7 -14 -10 13 -9 39 -17 59 -18 38 -1 47 -12 32
-36 -7 -11 -29 -15 -77 -16 -105 -1 -110 -3 -116 -24 -6 -24 -44 -40 -100 -41
-26 0 -35 -3 -25 -7 9 -4 -22 -7 -70 -6 -115 0 -122 2 -122 18 0 22 48 34 153
39 114 5 139 18 119 62 -14 31 -32 33 -32 4 0 -20 -4 -21 -45 -16 -25 2 -54
11 -63 20 -9 8 -31 18 -49 22 -34 7 -49 20 -54 48 -4 17 -77 52 -87 42 -12
-11 10 -34 35 -37 41 -5 34 -21 -16 -37 -33 -10 -51 -11 -80 -2 -20 6 -47 12
-61 13 -26 3 -27 -2 -18 -56 2 -10 -6 -23 -17 -30 -10 -6 -25 -16 -32 -23 -22
-19 -92 -24 -203 -15 -61 6 -106 6 -108 1 -6 -16 -21 -9 -28 13 l-7 23 -8 -23
c-5 -12 -16 -23 -26 -24 -55 -5 -223 -2 -223 5 0 4 18 7 40 7 37 0 39 1 28 19
-10 16 -9 26 2 48 8 15 16 31 17 35 2 4 -21 -4 -51 -17 -105 -46 -117 -63 -68
-89 l27 -15 -33 -1 c-70 0 -96 44 -46 77 26 16 26 17 5 25 -22 8 -38 34 -28
44 3 4 16 -1 29 -10 34 -24 86 -19 153 13 69 33 105 68 170 165 34 51 43 72
35 81 -7 9 -8 20 -2 32 5 10 17 59 26 108 12 61 27 105 46 135 20 30 33 68 39
111 15 105 31 147 73 184 34 31 44 35 94 35 30 0 67 -6 82 -14z m-434 -678
c-20 -33 -103 -112 -139 -133 -65 -37 -108 -40 -142 -11 -23 20 -26 28 -17 43
13 21 61 30 77 14 8 -8 2 -11 -22 -11 -45 0 -35 -24 12 -28 48 -4 94 19 167
84 61 54 78 65 64 42z m-5444 -983 c0 -60 -3 -75 -15 -75 -12 0 -15 14 -15 68
0 38 3 72 7 75 17 18 23 1 23 -68z m126 49 c2 -35 4 -38 16 -26 18 18 78 16
78 -3 0 -10 -10 -15 -27 -15 l-28 0 25 -13 c36 -18 39 -54 5 -67 -15 -6 -31
-7 -37 -4 -6 4 -23 7 -37 8 -23 1 -27 6 -31 45 -5 43 -6 44 -23 27 -10 -10
-16 -25 -13 -32 8 -20 -4 -44 -20 -44 -10 0 -14 15 -14 56 l0 56 40 -4 c31 -3
39 0 35 10 -3 8 -2 18 1 23 9 16 29 4 30 -17z m324 4 c1 -22 1 -22 15 -4 13
17 15 17 30 2 22 -22 35 -20 35 4 0 11 7 20 15 20 8 0 15 -8 15 -19 0 -13 7
-18 26 -18 33 0 44 -17 44 -70 0 -36 -3 -43 -20 -43 -17 0 -20 7 -20 41 0 52
-24 48 -28 -4 -2 -20 -9 -37 -15 -37 -7 0 -21 -3 -32 -5 -31 -8 -48 9 -55 57
l-7 43 -2 -47 c-1 -35 -5 -48 -16 -48 -16 0 -17 5 -17 60 l1 35 -11 -35 c-5
-19 -12 -41 -14 -47 -6 -22 -41 -15 -48 10 l-7 22 -9 -23 c-15 -36 -41 -23
-56 28 -18 58 -18 60 5 60 12 0 21 -8 24 -22 3 -22 4 -22 15 4 13 32 36 29 47
-5 7 -22 7 -22 14 3 5 17 13 24 25 22 11 -2 15 1 11 7 -8 14 3 31 21 31 8 0
14 -10 14 -22z m334 16 c30 -12 17 -33 -21 -36 -36 -3 -38 -5 -38 -38 0 -31 3
-35 30 -38 41 -5 52 -18 25 -32 -48 -26 -100 11 -100 70 0 61 49 95 104 74z
m156 2 c0 -3 -4 -8 -10 -11 -5 -3 -10 -1 -10 4 0 6 5 11 10 11 6 0 10 -2 10
-4z m1665 -72 c0 -45 -4 -69 -12 -71 -10 -4 -13 14 -13 65 0 65 5 86 19 78 3
-2 6 -35 6 -72z m-175 -13 c0 -84 -13 -110 -47 -96 -16 6 -16 8 5 22 19 14 22
24 22 84 0 39 4 69 10 69 6 0 10 -33 10 -79z m50 9 c0 -56 -3 -70 -15 -70 -13
0 -15 13 -14 70 1 51 5 70 15 70 11 0 14 -18 14 -70z m2390 0 c0 -56 -3 -70
-15 -70 -12 0 -15 14 -15 70 0 56 3 70 15 70 12 0 15 -14 15 -70z m120 0 c0
-56 -3 -70 -15 -70 -11 0 -15 12 -15 45 0 48 0 48 -24 39 -11 -4 -16 -19 -16
-45 0 -28 -4 -39 -15 -39 -12 0 -15 13 -15 56 l0 56 40 -4 c35 -3 39 -1 34 14
-3 12 0 18 10 18 13 0 16 -13 16 -70z m180 -19 c0 -80 -2 -89 -20 -94 -26 -7
-35 9 -17 28 11 10 15 34 13 85 -1 52 1 70 11 70 10 0 13 -23 13 -89z m-4305
46 c0 -6 14 -13 32 -14 26 -2 32 1 35 20 4 29 32 29 36 0 2 -15 10 -23 23 -23
25 0 25 -20 0 -27 -11 -3 -21 -13 -24 -24 -7 -25 -27 -24 -34 0 -9 35 -73 34
-73 0 0 -11 -7 -19 -15 -19 -8 0 -15 9 -15 20 0 11 -7 20 -15 20 -8 0 -19 8
-24 19 -9 16 -7 17 14 13 20 -3 25 0 25 15 0 11 3 23 7 27 8 8 28 -11 28 -27z
m1705 2 c0 -6 -9 -13 -20 -16 -16 -4 -20 -14 -20 -44 0 -28 -4 -39 -15 -39
-11 0 -15 12 -15 48 0 27 3 52 7 55 11 11 63 8 63 -4z m120 -4 c-3 -5 -13 -9
-22 -8 -27 4 -22 -12 8 -25 18 -9 24 -19 22 -35 -2 -18 -10 -23 -40 -25 -29
-2 -38 0 -38 13 0 11 6 14 25 9 14 -3 25 -2 25 3 0 6 -11 15 -25 21 -24 11
-33 40 -18 56 11 11 69 2 63 -9z m2390 -1 c0 -11 -6 -15 -20 -11 -30 8 -33 -8
-4 -22 18 -8 24 -18 22 -34 -2 -18 -9 -22 -35 -22 -18 0 -33 5 -33 10 0 6 9
10 19 10 11 0 23 3 27 8 4 4 0 7 -9 7 -27 0 -48 29 -37 51 14 24 70 27 70 3z
m180 0 c0 -11 -6 -15 -20 -11 -28 7 -25 -8 5 -21 43 -20 25 -62 -27 -62 -18 0
-28 5 -28 15 0 11 7 14 25 9 15 -4 25 -2 25 5 0 6 -11 13 -25 17 -17 4 -25 13
-25 28 0 30 8 36 42 36 19 0 28 -5 28 -16z m-132 -82 c2 -7 -3 -12 -12 -12 -9
0 -16 7 -16 16 0 17 22 14 28 -4z m-4140 -145 c9 4 20 11 23 16 9 13 42 0 34
-13 -10 -15 33 -8 74 13 19 9 37 13 40 9 11 -17 36 -19 54 -4 10 9 17 10 17 4
0 -7 13 -9 37 -5 33 6 36 4 30 -13 -6 -16 -4 -15 12 4 18 20 21 21 29 6 6 -11
11 -13 16 -5 10 16 46 13 46 -4 0 -8 5 -15 10 -15 6 0 10 7 10 15 0 8 5 15 10
15 6 0 10 -5 10 -10 0 -7 6 -7 20 0 15 8 26 7 47 -7 26 -17 27 -17 20 0 -5 15
0 17 43 17 l50 0 1 -42 2 -43 6 40 c6 38 8 40 46 43 27 2 43 -1 51 -13 10 -13
13 -13 17 -2 4 12 34 14 146 13 147 -2 172 -8 153 -42 -7 -12 -6 -23 1 -35 14
-23 2 -36 -17 -20 -10 9 -16 9 -21 1 -5 -8 -11 -8 -19 -1 -7 6 -16 8 -20 4 -4
-4 -15 -8 -23 -8 -24 0 -27 -22 -4 -28 12 -3 22 1 26 11 5 14 7 14 15 2 7 -11
11 -11 24 -1 11 9 16 10 16 2 0 -6 7 -11 16 -11 24 0 15 -84 -10 -88 -14 -3
-17 0 -13 12 3 8 2 18 -3 21 -6 4 -10 -1 -10 -9 0 -17 -2 -18 -101 -21 -37 -1
-71 -5 -77 -9 -6 -3 -14 -1 -18 5 -4 6 -19 9 -37 5 l-30 -6 6 41 c4 28 2 39
-6 36 -7 -2 -12 -12 -13 -23 -3 -49 -5 -54 -23 -54 -11 0 -23 5 -26 10 -8 13
-42 13 -47 -1 -2 -6 -41 -11 -103 -11 l-100 0 0 35 c0 47 -11 57 -13 12 -2
-46 -6 -52 -34 -49 -13 1 -31 3 -40 3 -12 1 -18 9 -18 24 0 24 -17 47 -34 47
-5 0 -2 -8 7 -18 21 -23 21 -32 3 -32 -7 0 -19 -7 -26 -15 -16 -19 -30 -19
-30 1 0 11 -6 14 -22 8 -13 -3 -29 -11 -35 -16 -9 -7 -18 -7 -27 1 -8 7 -17 8
-19 4 -8 -12 -232 -6 -256 6 -26 14 -31 14 -31 -4 0 -8 -4 -15 -10 -15 -5 0
-10 7 -10 15 0 8 -5 15 -11 15 -6 0 -9 -8 -6 -19 3 -14 0 -17 -13 -14 -23 6
-33 64 -17 97 12 27 37 35 37 14 0 -9 3 -9 9 1 5 8 8 35 6 61 -3 41 -1 47 23
58 31 15 45 15 37 2 -4 -6 7 -10 24 -10 23 0 31 5 32 18 0 11 4 7 10 -10 8
-19 15 -25 27 -21z m83 25 c-7 -2 -18 1 -23 6 -8 8 -4 9 13 5 13 -4 18 -8 10
-11z m-450 -25 c3 -4 16 2 29 13 l23 20 26 -22 c14 -13 27 -23 29 -24 1 -1 -1
-18 -6 -39 -7 -37 -9 -38 -53 -39 -42 -1 -45 1 -43 24 1 19 0 20 -3 4 -3 -15
-13 -23 -34 -26 -16 -3 -29 -1 -29 4 0 5 -11 6 -25 2 -21 -5 -25 -3 -25 15 0
23 -15 29 -23 9 -4 -10 -8 -9 -16 2 -9 13 -14 13 -31 2 -17 -11 -23 -10 -36 3
-13 13 -14 18 -3 33 7 9 14 18 15 20 1 2 12 -3 24 -10 18 -10 24 -10 27 0 3 6
11 12 19 12 9 0 12 -4 9 -10 -3 -5 -2 -10 4 -10 6 0 15 9 21 20 8 14 17 19 30
15 10 -3 21 -1 25 5 6 10 30 -1 46 -23z m-563 17 c31 -5 32 -7 32 -49 0 -25
-4 -45 -10 -45 -5 0 -10 8 -10 18 0 11 -5 8 -15 -12 -20 -37 -19 -39 7 -33 13
4 29 0 39 -9 16 -14 18 -14 24 5 9 28 25 17 26 -17 1 -19 3 -21 6 -9 4 14 12
18 29 14 13 -2 24 0 24 5 0 5 9 6 20 3 19 -6 22 -3 24 28 1 6 6 15 11 19 6 4
-2 8 -17 8 -16 0 -28 -5 -28 -11 0 -6 -16 -9 -37 -7 -31 2 -39 7 -41 26 -4 26
-22 20 -22 -9 0 -10 -4 -19 -10 -19 -5 0 -10 16 -10 35 0 28 4 35 19 35 10 0
22 8 26 18 6 16 7 16 19 0 7 -9 21 -16 32 -15 12 1 19 -4 18 -15 -1 -10 2 -18
7 -18 5 0 9 14 9 31 0 28 3 31 23 25 12 -3 33 -6 46 -6 16 0 21 -4 17 -15 -3
-8 -1 -15 4 -15 6 0 10 4 10 10 0 14 37 31 54 24 23 -9 20 -22 -6 -26 -30 -4
-36 -35 -8 -40 31 -5 29 -22 -2 -26 -21 -3 -30 3 -42 25 l-15 28 -1 -28 c0
-20 -6 -30 -20 -34 -11 -3 -20 -10 -20 -15 0 -15 28 -39 34 -30 3 5 21 9 40
10 39 2 50 -15 36 -53 -11 -28 -22 -31 -43 -11 -10 11 -17 12 -25 4 -8 -8 -15
-8 -26 1 -10 8 -15 9 -18 1 -2 -6 -12 -11 -23 -10 -11 0 -43 0 -72 0 -42 -1
-54 3 -68 22 -17 23 -17 23 -12 1 4 -16 0 -23 -14 -25 -11 -2 -18 -7 -17 -12
2 -5 47 -8 101 -7 64 2 104 -2 113 -10 11 -9 14 -9 14 1 0 8 17 11 53 9 29 -1
58 1 64 4 7 4 14 3 18 -3 7 -11 25 -4 25 10 0 5 -9 12 -20 15 -14 4 -20 15
-20 34 0 34 21 54 50 49 27 -4 27 -22 0 -26 -13 -2 -20 -10 -18 -19 5 -28 27
-26 38 2 9 24 14 26 44 21 24 -5 39 -2 49 9 19 19 37 19 37 1 0 -8 8 -12 23
-9 33 6 50 -17 37 -51 -10 -28 -17 -31 -39 -17 -9 6 -22 6 -33 0 -12 -6 -24
-6 -36 0 -20 11 -48 -1 -38 -17 3 -6 14 -8 25 -5 11 3 27 -4 40 -18 l21 -23 0
22 c0 18 6 22 29 22 21 0 32 6 36 20 7 21 20 26 29 12 9 -16 -6 -52 -23 -53
-11 0 -9 -3 7 -9 22 -10 31 -30 11 -30 -5 0 -7 -5 -4 -10 4 -7 12 -7 25 0 20
11 47 -11 35 -29 -6 -11 -53 -10 -72 2 -7 4 -14 3 -18 -3 -7 -11 -74 -9 -94 4
-8 5 -16 4 -21 -4 -12 -20 -45 -7 -49 20 l-4 25 -6 -25 c-4 -14 -15 -27 -25
-28 -14 -3 -17 0 -13 12 3 8 2 18 -3 21 -6 4 -10 0 -10 -8 0 -8 -11 -17 -24
-19 -19 -4 -26 0 -28 14 -3 19 -3 19 -23 0 -17 -15 -35 -18 -98 -17 -57 1 -81
5 -87 15 -8 13 -10 13 -10 -1 0 -13 -15 -15 -102 -14 l-103 2 3 39 c2 41 22
63 56 65 12 0 16 3 9 5 -7 3 -10 11 -7 19 3 7 1 16 -5 20 -6 3 -11 -2 -11 -12
0 -13 -8 -19 -25 -21 -23 -2 -25 2 -25 38 0 21 5 42 10 45 6 3 10 15 10 26 0
10 -4 19 -10 19 -5 0 -10 7 -10 15 0 8 5 15 10 15 6 0 5 8 -2 20 -21 33 10 45
90 34z m2368 -9 c8 -19 62 -20 83 -1 17 14 95 11 86 -4 -6 -11 24 -35 32 -26
4 4 1 11 -7 16 -12 7 -10 11 10 18 14 5 29 8 33 5 4 -3 28 -5 52 -5 36 0 45
-3 51 -21 l7 -22 8 23 c11 30 59 31 59 2 0 -26 17 -26 25 1 10 31 30 17 33
-23 3 -30 6 -35 23 -31 15 4 19 14 19 44 0 22 5 39 10 39 6 0 10 -7 10 -15 0
-8 9 -15 20 -15 11 0 20 -4 20 -10 0 -5 -9 -10 -20 -10 -29 0 -25 -27 5 -32
21 -4 25 -1 25 19 0 38 19 67 35 53 10 -8 14 -8 17 1 3 9 10 8 26 -2 18 -11
22 -22 20 -53 -3 -40 -28 -65 -28 -27 0 11 -4 23 -10 26 -5 3 -10 -3 -10 -14
0 -22 -3 -23 -100 -23 -57 0 -57 0 -74 18 -9 8 -16 11 -16 5 0 -15 -27 -14
-33 2 -3 7 -6 4 -6 -6 -1 -28 -21 -9 -22 21 -1 27 -1 27 -15 -5 -8 -18 -17
-33 -20 -33 -3 0 -11 15 -19 33 l-14 32 -1 -31 c0 -17 -9 -42 -21 -55 -13 -15
-18 -31 -14 -46 4 -18 1 -23 -15 -23 -11 0 -20 -7 -20 -15 0 -8 -4 -15 -10
-15 -5 0 -10 6 -10 14 0 8 -7 16 -17 18 -11 2 -16 14 -17 36 -1 31 0 32 42 32
29 0 41 4 36 11 -3 6 -20 9 -36 7 -26 -4 -32 -1 -40 24 -12 34 -28 37 -28 4 0
-29 -17 -43 -33 -27 -8 8 -8 11 1 11 7 0 12 9 12 20 0 11 -7 20 -15 20 -9 0
-15 -9 -15 -24 0 -14 -4 -27 -9 -30 -11 -7 -24 41 -15 56 4 6 1 9 -7 6 -8 -3
-14 -16 -14 -31 0 -35 -8 -40 -53 -32 -35 6 -39 9 -38 36 1 16 5 29 11 29 5 0
4 5 -3 12 -7 7 -12 16 -12 20 0 14 20 9 26 -7z m54 5 c12 -8 9 -10 -12 -10
-16 0 -28 5 -28 10 0 13 20 13 40 0z m989 -5 c6 -3 8 -11 5 -17 -4 -6 -7 -27
-8 -46 -1 -27 5 -39 27 -54 22 -16 27 -17 27 -4 0 8 5 18 11 22 7 4 10 -6 8
-30 -5 -49 16 -68 33 -31 10 22 10 29 0 33 -25 8 -11 22 23 22 37 0 62 -28 51
-57 -4 -9 -2 -21 4 -28 8 -9 -4 -12 -53 -12 -34 0 -65 5 -69 11 -4 6 -12 5
-22 -3 -11 -9 -20 -10 -35 -2 -13 7 -22 8 -26 1 -3 -5 -13 -10 -21 -10 -10 0
-14 13 -15 43 l-2 42 -6 -40 c-7 -44 -29 -57 -48 -26 -8 13 -9 29 -3 53 9 32
12 34 45 30 31 -4 35 -7 35 -33 0 -16 5 -29 10 -29 8 0 11 15 10 68 0 4 -15 7
-33 8 -28 0 -32 3 -33 30 -1 44 -3 54 -11 54 -5 0 -8 -19 -8 -42 0 -36 -3 -43
-19 -41 -17 1 -18 -4 -13 -55 l5 -57 -72 -3 c-39 -1 -99 0 -133 4 -52 5 -63 9
-63 24 0 10 6 21 13 23 9 4 9 6 -1 6 -7 1 -17 -10 -22 -24 -12 -31 -28 -32
-40 -2 l-9 22 0 -24 c-1 -20 -5 -23 -30 -19 -27 4 -30 2 -28 -24 2 -29 12 -37
21 -15 9 23 36 -24 29 -52 -3 -14 -6 -27 -7 -28 -1 0 -19 -3 -41 -5 -39 -3
-40 -2 -41 32 -1 19 5 42 13 51 12 15 11 17 -12 23 -15 4 -25 12 -22 19 2 7
-2 18 -9 25 -12 11 -14 9 -14 -8 0 -16 -5 -21 -22 -18 -16 2 -22 9 -20 21 2 9
-2 17 -8 17 -5 0 -10 -11 -10 -25 0 -22 -4 -25 -40 -25 -22 0 -40 3 -41 8 0 4
-2 20 -4 35 -2 18 3 35 15 47 21 21 32 17 22 -8 -5 -15 -4 -15 12 -2 16 13 20
12 31 -3 16 -22 21 -21 28 4 4 16 11 19 26 14 13 -4 21 -2 21 5 0 6 10 4 25
-6 15 -10 25 -12 25 -5 0 26 19 8 23 -21 4 -30 5 -31 12 -11 5 17 14 22 36 20
16 -1 31 -9 34 -17 5 -11 8 -12 14 -2 4 7 21 14 37 15 23 2 30 -2 32 -21 4
-29 22 -18 22 14 0 15 6 24 15 24 8 0 15 4 15 9 0 11 39 3 58 -12 8 -6 12 -5
12 3 0 9 11 11 35 7 38 -6 60 11 26 20 -14 3 -21 13 -21 29 0 14 -6 24 -14 24
-9 0 -12 -7 -9 -19 6 -24 -9 -33 -42 -25 -16 4 -25 13 -25 25 0 10 -4 19 -10
19 -5 0 -10 -9 -10 -19 0 -11 -4 -23 -10 -26 -6 -4 -10 8 -10 29 0 29 4 36 20
36 11 0 20 5 20 10 0 6 5 10 10 10 6 0 10 -6 10 -13 0 -9 11 -12 35 -9 19 2
34 7 33 11 0 3 0 9 1 12 1 9 176 3 190 -6z m214 -15 c4 -16 4 -37 1 -45 -8
-21 9 -19 30 4 16 17 16 19 -6 25 -13 4 -18 9 -11 12 7 3 15 4 17 2 3 -2 12 6
20 17 13 19 15 19 21 3 9 -22 41 -24 49 -3 4 10 20 15 52 15 l46 0 -6 -45 c-4
-28 -3 -45 4 -45 5 0 10 17 10 39 0 33 3 39 25 43 32 6 76 -2 70 -12 -11 -18
-12 -71 -1 -67 6 2 12 20 13 41 1 43 10 57 23 36 7 -12 14 -12 27 -4 24 14 57
-15 47 -41 -5 -13 -4 -16 5 -10 7 4 11 18 8 30 -3 17 1 25 15 29 34 8 47 -4
51 -47 l4 -42 1 48 c1 26 7 47 12 47 6 0 11 -21 12 -47 l1 -48 6 45 6 45 80
-2 c44 -1 87 -2 95 -2 11 -1 16 -13 18 -46 2 -48 -10 -64 -33 -45 -16 13 -45
7 -45 -10 0 -5 9 -10 20 -10 22 0 25 -7 11 -29 -6 -9 -6 -22 0 -33 7 -13 4
-20 -12 -29 -12 -6 -24 -7 -28 -2 -7 10 -26 11 -37 1 -11 -12 -49 -9 -62 4 -9
9 -15 9 -24 0 -7 -7 -18 -12 -26 -12 -12 0 -12 3 -2 15 10 12 10 15 -4 15 -9
0 -16 -4 -16 -10 0 -5 -11 -10 -25 -10 -27 0 -33 18 -13 38 7 7 8 12 2 12 -6
0 -16 -11 -22 -25 -14 -31 -26 -32 -40 -2 l-11 22 0 -24 c-1 -20 -5 -23 -31
-19 -20 3 -30 0 -30 -9 0 -15 -5 -15 -38 -7 -13 4 -21 12 -19 18 3 6 -2 17 -9
24 -12 11 -14 9 -14 -6 0 -11 -9 -22 -19 -25 -16 -4 -20 1 -23 27 -2 17 -7 29
-13 26 -5 -3 -8 -18 -6 -33 3 -27 1 -28 -40 -25 l-43 3 -2 48 c-1 42 1 47 20
48 40 2 71 -3 77 -13 4 -7 9 -6 14 1 4 7 16 9 27 5 15 -4 19 -2 16 7 -3 9 -23
14 -57 15 -57 1 -75 15 -65 48 5 15 3 18 -11 13 -9 -4 -22 -7 -28 -7 -6 0 0
-11 12 -24 12 -13 18 -27 13 -30 -5 -3 -17 3 -27 14 -18 20 -19 20 -39 1 -20
-18 -36 -19 -117 -12 -12 1 -16 9 -14 34 2 17 3 40 4 50 1 13 10 17 40 17 35
0 39 -3 44 -30z m1247 -21 c0 -11 -5 -29 -10 -40 -12 -22 -35 -26 -27 -4 10
25 -13 28 -32 4 -11 -13 -20 -18 -24 -12 -4 6 0 16 8 23 17 14 20 40 5 40 -17
0 -11 28 8 32 27 6 72 -21 72 -43z m196 39 c6 -4 25 -4 41 1 33 10 83 4 83
-10 0 -14 17 -10 35 8 16 15 19 15 47 -1 28 -17 30 -17 43 1 12 15 16 15 24 4
6 -9 10 -10 16 -2 5 9 10 9 20 1 7 -6 20 -7 29 -4 12 5 19 0 23 -16 l6 -24 8
22 c10 26 29 29 29 5 1 -16 2 -16 15 1 21 28 29 13 15 -28 -13 -41 -17 -43
-36 -18 -13 16 -13 16 -14 0 0 -22 -30 -24 -30 -3 0 23 -18 18 -22 -7 -2 -12
-9 -24 -17 -26 -10 -3 -12 0 -8 11 3 9 -1 21 -9 27 -11 10 -14 9 -14 -9 0 -14
-6 -21 -20 -21 -19 0 -24 10 -21 38 1 7 -9 12 -26 11 -15 0 -22 -3 -15 -6 6
-2 12 -11 12 -18 0 -7 6 -16 13 -18 6 -3 -11 -6 -40 -6 -46 -1 -51 1 -46 18 3
11 12 22 22 24 9 3 6 5 -9 6 -14 0 -31 -3 -39 -8 -12 -8 -13 -12 -1 -26 11
-14 9 -16 -16 -15 -16 0 -38 0 -49 -1 -11 0 -44 1 -73 2 -46 2 -52 5 -46 21 3
10 1 18 -4 18 -6 0 -8 9 -5 20 3 11 1 20 -5 20 -18 0 -23 -17 -12 -46 14 -35
1 -48 -33 -33 -21 9 -30 9 -42 -1 -13 -11 -15 -6 -13 38 2 43 6 52 23 54 38 6
150 2 161 -4z m765 -4 c8 -10 9 -18 3 -22 -17 -12 -10 -46 11 -50 16 -4 17 -2
7 10 -6 8 -9 18 -5 22 4 4 8 17 8 28 0 17 7 22 42 25 39 4 42 2 45 -24 l4 -28
13 27 c11 22 20 27 47 26 31 -1 50 -20 39 -38 -3 -5 -1 -11 5 -15 5 -3 10 2
10 12 0 32 16 48 33 34 12 -9 16 -9 19 1 4 11 8 10 21 0 10 -9 24 -11 39 -6
30 10 59 11 79 2 9 -4 19 -5 22 -1 4 3 27 6 52 7 43 1 45 0 46 -29 l1 -30 9
33 c8 28 12 32 24 22 12 -10 15 -10 15 -1 0 8 11 11 28 9 25 -3 27 -6 24 -39
-3 -36 10 -59 22 -40 4 5 2 12 -3 15 -13 8 3 61 17 60 7 -1 25 -2 41 -2 24 -2
29 -7 33 -32 3 -16 0 -30 -5 -30 -5 0 -3 -7 4 -17 13 -15 11 -16 -13 -9 -20 4
-28 3 -28 -6 0 -8 -3 -9 -8 -3 -4 6 -34 9 -68 7 l-60 -4 1 -38 c0 -22 4 -42 8
-46 13 -13 7 -26 -9 -20 -9 4 -23 1 -31 -6 -11 -9 -16 -9 -22 1 -5 7 -12 12
-17 12 -5 -1 -10 17 -12 40 -3 39 -2 40 20 34 13 -4 25 -12 26 -16 9 -22 22
-6 22 26 0 19 -4 35 -10 35 -5 0 -10 -7 -10 -16 0 -11 -5 -14 -16 -10 -9 3
-31 6 -51 6 -27 0 -34 3 -29 15 3 8 1 25 -4 37 -8 20 -9 18 -9 -14 -1 -38 -18
-59 -31 -38 -5 8 -10 9 -14 2 -3 -6 -15 -10 -26 -9 -16 1 -20 9 -21 42 -1 22
-3 31 -6 20 -2 -11 -6 -30 -9 -42 -4 -22 -34 -33 -34 -13 0 6 5 10 10 10 6 0
5 6 -2 14 -11 12 -14 11 -20 -4 -9 -24 -66 -32 -78 -11 -7 11 -12 13 -17 5 -5
-6 -18 -14 -30 -18 -20 -6 -23 -4 -23 18 0 14 -5 26 -11 26 -5 0 -9 -10 -7
-22 3 -21 0 -22 -100 -23 -56 0 -102 3 -102 8 0 4 6 16 13 27 10 17 9 22 -1
29 -7 4 -10 14 -7 23 8 20 69 22 86 2z m967 -33 c3 -44 -12 -76 -26 -55 -9 14
-52 25 -52 13 0 -5 -4 -9 -10 -9 -11 0 -14 83 -3 94 4 4 25 6 48 4 40 -3 40
-3 43 -47z m102 4 c0 -43 -9 -65 -26 -65 -17 0 -18 12 -2 28 9 9 7 12 -10 12
-12 0 -22 -4 -22 -9 0 -5 -7 -11 -15 -15 -12 -4 -15 4 -15 41 0 45 0 45 30 40
16 -4 32 -2 35 3 11 19 25 -1 25 -35z m-3820 -5 c0 -22 -4 -40 -10 -40 -5 0
-10 18 -10 40 0 22 5 40 10 40 6 0 10 -18 10 -40z m2510 31 c0 -11 50 -24 58
-16 4 3 0 10 -8 15 -10 7 2 10 39 10 45 0 52 -2 42 -14 -9 -11 -9 -15 1 -20
10 -5 10 -7 1 -12 -7 -3 -13 -17 -13 -30 0 -14 -4 -22 -10 -19 -5 3 -10 15
-10 26 0 10 -4 19 -10 19 -5 0 -10 -6 -10 -14 0 -7 -7 -20 -17 -27 -15 -13
-16 -11 -9 14 7 31 -9 38 -19 7 -9 -27 -43 -25 -55 3 l-9 22 0 -23 c-1 -36
-45 -26 -49 11 -4 31 20 46 43 27 12 -10 15 -9 15 9 0 11 5 21 10 21 6 0 10
-4 10 -9z m-4892 -73 c-5 -32 -28 -35 -28 -4 0 17 5 26 16 26 10 0 14 -7 12
-22z m2752 -4 c0 -8 -4 -14 -10 -14 -5 0 -10 9 -10 21 0 11 5 17 10 14 6 -3
10 -13 10 -21z m3164 -8 c-3 -13 -1 -27 5 -30 14 -9 14 -56 1 -56 -5 0 -10 -7
-10 -15 0 -8 -4 -15 -10 -15 -5 0 -10 7 -10 15 0 8 -7 15 -15 15 -8 0 -15 -8
-15 -17 0 -35 -24 7 -27 47 -2 34 0 40 18 40 11 0 17 -4 14 -10 -3 -5 -1 -10
5 -10 7 0 17 14 23 30 14 36 30 40 21 6z m-1034 -16 c0 -5 9 -10 20 -10 26 0
25 -18 -2 -47 l-21 -23 26 0 c15 0 27 -5 27 -11 0 -6 -20 -9 -50 -7 -58 3 -63
15 -17 42 32 20 32 20 7 24 -30 5 -52 22 -27 22 9 0 17 5 17 10 0 6 5 10 10
10 6 0 10 -4 10 -10z m213 -5 c9 4 24 -2 36 -14 16 -16 21 -17 21 -6 0 31 20
14 21 -17 1 -30 2 -31 8 -8 4 14 13 25 21 25 8 0 20 7 27 15 11 13 12 13 13 0
0 -12 10 -16 35 -16 26 0 34 4 30 14 -5 12 32 13 199 3 5 -1 4 -7 -2 -14 -6
-7 -10 -26 -9 -43 2 -28 0 -29 -42 -32 l-43 -3 6 34 c5 25 2 38 -9 47 -13 11
-14 7 -9 -34 l7 -46 -31 0 c-46 0 -62 10 -62 36 0 14 -6 24 -14 24 -9 0 -12
-8 -8 -25 4 -23 1 -24 -32 -23 -31 1 -36 5 -36 25 0 12 -4 23 -10 23 -5 0 -10
-11 -10 -25 0 -22 -4 -24 -30 -21 -17 2 -33 0 -36 -5 -9 -15 -34 -10 -28 5 3
8 1 17 -5 21 -6 3 -11 -1 -11 -9 0 -10 -9 -16 -25 -16 -22 0 -25 4 -25 38 0
39 18 71 30 52 4 -6 14 -8 23 -5z m-3257 -7 c11 -17 7 -69 -6 -82 -8 -8 -13
-7 -19 3 -6 10 -13 10 -29 2 -21 -11 -96 -10 -108 2 -4 4 -12 3 -19 -3 -8 -7
-11 4 -12 38 l0 48 93 1 c57 1 96 -3 100 -9z m1149 2 c21 0 13 -64 -8 -68 -9
-2 -17 -8 -17 -13 0 -5 -4 -9 -10 -9 -5 0 -10 6 -10 14 0 8 -8 13 -17 12 -26
-2 -24 57 2 65 11 4 26 5 33 3 8 -2 20 -4 27 -4z m1135 0 c5 8 10 10 10 4 0
-7 8 -11 18 -10 12 1 18 -8 20 -31 2 -18 7 -33 13 -33 5 0 8 8 7 18 -4 56 0
63 40 60 20 -2 37 -7 37 -13 0 -5 4 -16 9 -24 5 -8 4 -16 -2 -20 -7 -4 -8 -12
-1 -21 8 -13 10 -13 19 0 5 8 7 23 4 33 -3 10 0 17 8 17 10 0 9 3 -2 10 -8 5
-11 12 -7 16 3 4 13 1 22 -6 10 -8 15 -9 15 -1 0 17 37 13 44 -5 6 -16 8 -16
24 0 10 9 34 16 54 16 35 0 35 -1 31 -37 -5 -53 -10 -63 -30 -63 -13 0 -14 3
-5 12 7 7 12 20 12 31 0 31 -34 16 -41 -18 l-6 -30 -10 25 c-6 14 -9 28 -6 33
2 4 -1 7 -6 7 -6 0 -11 -13 -11 -29 l0 -29 -132 0 c-73 0 -140 2 -149 4 -21 6
-31 52 -17 78 8 15 12 16 19 5 8 -12 11 -12 19 1z m501 -16 c7 -17 8 -17 15 5
l7 24 18 -24 c15 -20 19 -21 19 -6 0 9 5 17 11 17 10 0 4 -52 -8 -72 -7 -14
-23 -9 -23 7 0 8 -4 15 -10 15 -5 0 -10 -7 -10 -16 0 -24 -24 -11 -30 17 -3
13 -14 25 -25 27 -17 3 -18 1 -5 -8 11 -9 12 -13 3 -17 -18 -7 -16 -23 2 -23
8 0 15 -4 15 -10 0 -5 -20 -10 -44 -10 -39 0 -45 3 -50 27 -5 16 -3 29 4 33 9
6 9 10 -1 15 -19 12 14 22 64 19 29 -1 43 -7 48 -20z m190 -4 c6 0 9 -12 7
-27 -4 -34 -36 -43 -55 -17 -12 17 -13 17 -13 0 0 -26 -44 -17 -48 10 -4 31
21 48 49 34 14 -8 19 -8 15 -1 -12 19 4 32 20 16 9 -8 20 -15 25 -15z m205 20
c9 0 14 -11 14 -30 0 -24 -4 -30 -21 -30 -11 0 -18 -4 -14 -9 3 -5 1 -12 -4
-16 -5 -3 -13 1 -18 8 -4 7 -15 16 -24 19 -38 14 0 75 39 62 8 -2 20 -4 28 -4z
m1012 -42 c1 -26 -3 -48 -9 -48 -5 0 -9 8 -9 17 0 15 -1 15 -13 -1 -10 -13
-20 -16 -35 -12 -19 6 -22 14 -21 50 l2 42 43 0 42 1 0 -49z m102 41 c-11 -8
-12 -12 -2 -16 14 -6 16 -59 2 -68 -6 -3 -10 4 -11 17 0 22 0 23 -9 2 -6 -15
-17 -21 -36 -20 -25 1 -27 5 -29 41 0 22 1 43 3 48 2 4 24 7 50 7 36 0 43 -3
32 -11z m-310 -39 c0 -5 -20 -10 -44 -10 -25 0 -48 5 -51 10 -4 6 13 10 44 10
28 0 51 -4 51 -10z m-2158 -35 c0 -5 -5 -11 -11 -13 -6 -2 -11 4 -11 13 0 9 5
15 11 13 6 -2 11 -8 11 -13z m1878 1 c0 -8 -4 -18 -10 -21 -5 -3 -10 3 -10 14
0 12 5 21 10 21 6 0 10 -6 10 -14z m-3808 -48 c-1 -9 3 -20 9 -24 8 -5 10 -2
6 8 -8 23 13 38 55 38 36 0 38 -2 39 -32 2 -31 2 -31 6 -5 5 34 39 37 53 5 l9
-23 7 23 c4 14 14 22 29 22 13 0 26 -9 33 -22 l11 -23 7 23 c11 38 34 27 34
-18 0 -22 -4 -40 -10 -40 -5 0 -10 6 -10 13 0 8 -3 8 -9 -2 -8 -12 -12 -12
-25 -2 -11 9 -16 10 -16 2 0 -6 -5 -11 -11 -11 -7 0 -9 10 -7 25 3 14 2 25 -2
25 -4 0 -11 -11 -14 -25 -9 -34 -24 -31 -41 8 l-14 32 -1 -42 c0 -24 -5 -43
-12 -46 -17 -5 -68 12 -68 24 0 16 -18 9 -23 -8 -3 -14 -6 -12 -15 10 -6 15
-16 27 -22 27 -13 0 -13 -17 0 -25 6 -3 10 -11 10 -17 0 -7 -5 -7 -14 1 -10 8
-21 9 -41 1 -35 -13 -46 0 -43 50 2 49 5 51 51 48 33 -2 41 -7 39 -20z m403
-15 c2 -27 -1 -33 -16 -33 -11 0 -19 -7 -19 -15 0 -8 -4 -15 -10 -15 -5 0 -10
7 -10 15 0 8 -9 15 -20 15 -11 0 -20 5 -20 10 0 6 5 10 10 10 7 0 7 6 1 19
-14 25 -4 32 42 29 37 -3 40 -5 42 -35z m175 22 c0 -8 7 -15 15 -15 8 0 15 -4
15 -10 0 -5 -7 -10 -15 -10 -8 0 -15 -7 -15 -15 0 -8 9 -15 19 -15 11 0 23 -4
26 -10 4 -6 -15 -10 -49 -10 -31 0 -56 5 -56 10 0 6 9 10 20 10 17 0 20 7 20
40 0 22 5 40 10 40 6 0 10 -7 10 -15z m80 4 c0 -8 5 -7 16 2 13 10 19 10 36 0
12 -8 23 -9 27 -4 7 11 63 9 80 -2 6 -3 11 -14 12 -23 0 -10 5 -6 11 11 10 29
22 34 34 16 4 -8 9 -7 14 2 7 10 14 9 33 -4 18 -12 27 -13 29 -5 3 8 38 13
101 15 l97 3 0 -27 1 -28 14 27 c15 27 38 31 79 13 12 -5 21 -3 27 6 7 11 12
12 27 2 15 -9 22 -9 31 0 17 16 36 -17 36 -60 0 -31 -2 -33 -37 -33 -20 0 -48
4 -63 10 -21 8 -27 7 -32 -7 -6 -14 -8 -14 -21 3 -10 13 -16 15 -19 7 -7 -20
-23 -15 -23 7 0 11 -5 20 -11 20 -6 0 -9 -9 -6 -20 5 -18 0 -20 -38 -20 -24 0
-47 5 -50 11 -5 7 -11 5 -18 -4 -17 -20 -97 -11 -98 12 0 11 -3 8 -10 -7 -10
-26 -36 -25 -31 1 1 8 -2 18 -8 22 -5 3 -10 -3 -10 -14 0 -18 -6 -21 -39 -21
-22 0 -43 5 -46 10 -4 6 -12 4 -21 -5 -22 -22 -33 -19 -41 13 l-7 27 -6 -25
c-5 -20 -12 -24 -48 -26 -38 -1 -42 1 -42 22 0 12 -4 25 -10 29 -6 3 -5 15 2
30 12 26 28 34 28 14z m1735 1 c10 17 45 -8 45 -32 0 -12 3 -18 8 -14 4 4 7
17 7 29 0 17 7 21 42 24 46 3 57 -11 41 -54 -5 -17 -4 -23 7 -23 15 0 19 11
16 38 -4 25 21 44 48 37 32 -8 41 -21 41 -62 0 -40 -14 -49 -45 -29 -13 8 -25
12 -27 7 -3 -10 -27 -14 -80 -12 -27 1 -38 6 -38 16 0 22 -17 18 -23 -5 -7
-26 -27 -26 -27 -1 0 27 -17 35 -23 11 -3 -12 -14 -20 -26 -20 -18 0 -21 6
-21 38 0 43 17 67 36 51 8 -7 14 -7 19 1z m355 -5 c7 -4 16 -1 21 6 7 11 12
12 27 2 15 -9 22 -9 31 0 16 16 36 -16 37 -60 1 -29 -1 -31 -38 -35 -24 -2
-43 1 -50 9 -14 18 -37 16 -44 -2 -6 -14 -8 -13 -21 2 -10 13 -16 15 -19 6 -9
-21 -21 -15 -27 14 -8 42 10 69 43 67 16 -1 34 -5 40 -9z m216 4 c3 -5 10 -6
16 -3 13 9 68 12 86 6 6 -2 12 -10 12 -18 0 -8 7 -14 16 -14 13 0 14 3 5 14
-14 17 -5 23 27 20 12 -1 29 -2 38 -3 8 0 12 -6 8 -12 -3 -6 0 -16 7 -21 11
-7 11 -11 2 -15 -7 -2 -13 -13 -13 -24 0 -10 -4 -19 -10 -19 -5 0 -10 9 -10
20 0 26 -14 25 -33 -2 -8 -13 -18 -20 -22 -16 -4 4 -3 14 4 22 9 11 8 15 -3
19 -10 4 -16 -2 -18 -21 -2 -16 -8 -26 -17 -24 -7 1 -28 3 -47 4 -32 1 -34 4
-35 37 l-2 36 -6 -40 c-6 -42 -6 -42 -78 -36 -13 1 -19 82 -7 93 9 10 74 7 80
-3z m284 -3 c0 -6 5 -4 10 4 9 13 11 13 20 0 5 -8 7 -24 4 -35 -10 -33 -10
-37 4 -42 8 -3 12 6 12 30 0 37 23 67 35 46 6 -8 9 -8 15 1 6 9 13 9 29 1 23
-13 29 -63 11 -91 -9 -14 -24 -8 -26 11 -1 5 -2 15 -3 22 -1 6 -6 2 -11 -10
-9 -21 -42 -31 -75 -23 -5 2 -27 2 -47 1 -42 -2 -46 4 -20 32 12 15 14 21 5
24 -7 3 -13 13 -13 23 0 12 8 18 25 18 14 0 25 -6 25 -12z m238 0 c-25 -18
-22 -26 7 -26 18 0 25 5 25 20 0 16 7 20 33 20 50 0 65 -17 59 -68 l-4 -43
-57 6 c-31 4 -61 14 -68 22 -10 12 -12 11 -18 -6 -7 -22 -22 -26 -41 -13 -10
7 -17 80 -9 93 2 3 23 6 47 7 38 1 41 0 26 -12z m-2072 -67 c10 -17 -13 -36
-27 -22 -12 12 -4 33 11 33 5 0 12 -5 16 -11z m2242 -6 c-5 -25 -28 -28 -28
-4 0 12 6 21 16 21 9 0 14 -7 12 -17z m-5105 -500 c-7 -2 -19 -2 -25 0 -7 3
-2 5 12 5 14 0 19 -2 13 -5z"/>
<path d="M3590 2910 c0 -5 5 -10 10 -10 6 0 10 5 10 10 0 6 -4 10 -10 10 -5 0
-10 -4 -10 -10z"/>
<path d="M3640 2900 c0 -5 7 -10 16 -10 8 0 12 5 9 10 -3 6 -10 10 -16 10 -5
0 -9 -4 -9 -10z"/>
<path d="M3508 2881 c-48 -16 -68 -38 -25 -27 33 8 97 35 97 41 0 8 -22 4 -72
-14z"/>
<path d="M3414 2835 c13 -50 27 -76 39 -73 22 8 20 55 -4 77 -30 28 -43 27
-35 -4z"/>
<path d="M3462 2658 c-60 -42 -62 -44 -62 -88 0 -32 7 -53 23 -74 20 -24 28
-27 55 -21 21 4 32 12 32 24 0 10 10 30 21 45 15 19 23 47 27 92 4 58 3 64
-15 64 -10 0 -47 -19 -81 -42z"/>
<path d="M3282 2580 c-7 -19 -25 -55 -41 -79 -17 -25 -28 -48 -25 -53 13 -21
88 118 82 149 -3 13 -8 7 -16 -17z"/>
<path d="M3907 2603 c-14 -23 38 -226 57 -220 6 2 14 18 19 37 7 28 2 44 -31
112 -22 44 -42 76 -45 71z"/>
<path d="M3226 2544 c-9 -20 -15 -38 -13 -41 3 -2 12 13 22 32 9 20 15 38 13
41 -3 2 -12 -13 -22 -32z"/>
<path d="M4000 2571 c0 -6 4 -13 10 -16 6 -3 7 1 4 9 -7 18 -14 21 -14 7z"/>
<path d="M3367 2518 c7 -40 42 -112 50 -104 7 7 -36 124 -48 132 -5 3 -6 -10
-2 -28z"/>
<path d="M4014 2432 c0 -37 -6 -78 -13 -90 -18 -34 -7 -38 14 -5 24 36 31 103
14 136 -13 24 -14 21 -15 -41z"/>
<path d="M3801 2418 c-1 -20 4 -40 9 -43 12 -7 12 19 0 55 -7 22 -8 21 -9 -12z"/>
<path d="M3850 2412 c0 -49 15 -100 36 -124 17 -18 18 -18 31 13 14 34 13 38
-33 116 -25 43 -34 41 -34 -5z"/>
<path d="M3242 2428 c-14 -14 -16 -28 -3 -28 9 0 24 30 18 36 -2 2 -9 -2 -15
-8z"/>
<path d="M3359 2398 c0 -22 -1 -22 -9 -3 -7 18 -8 19 -15 2 -4 -9 -4 -34 -1
-55 3 -20 6 -45 7 -55 0 -32 23 -12 33 29 5 21 14 42 19 46 7 4 4 16 -7 32
-20 32 -26 33 -27 4z"/>
<path d="M3276 2394 c-4 -9 -4 -19 -1 -22 2 -3 7 3 11 12 4 9 4 19 1 22 -2 3
-7 -3 -11 -12z"/>
<path d="M4027 2322 c-25 -40 -27 -48 -16 -74 6 -15 15 -28 19 -28 9 0 34 123
29 138 -2 6 -17 -11 -32 -36z"/>
<path d="M3269 2340 c-3 -8 -1 -35 4 -60 6 -25 12 -38 14 -30 5 23 -12 107
-18 90z"/>
<path d="M3960 2230 c0 -11 5 -20 10 -20 6 0 10 9 10 20 0 11 -4 20 -10 20 -5
0 -10 -9 -10 -20z"/>
<path d="M4056 2176 c-18 -34 -17 -66 3 -66 13 0 24 40 19 75 l-3 26 -19 -35z"/>
<path d="M6339 2340 c13 -11 28 -20 33 -20 6 0 -1 9 -15 20 -33 26 -49 26 -18
0z"/>
<path d="M6440 2240 c8 -5 20 -10 25 -10 6 0 3 5 -5 10 -8 5 -19 10 -25 10 -5
0 -3 -5 5 -10z"/>
<path d="M5540 2200 c0 -5 9 -14 19 -20 30 -15 33 -12 11 10 -22 22 -30 25
-30 10z"/>
<path d="M6328 2103 c6 -2 18 -2 25 0 6 3 1 5 -13 5 -14 0 -19 -2 -12 -5z"/>
<path d="M280 1406 c0 -8 11 -16 25 -18 14 -3 25 -2 25 2 0 4 -11 12 -25 18
-20 9 -25 9 -25 -2z"/>
<path d="M650 1416 c0 -36 27 -41 28 -5 0 19 -4 29 -14 29 -8 0 -14 -10 -14
-24z"/>
<path d="M1981 1193 c0 -25 1 -26 9 -8 12 27 12 35 0 35 -5 0 -10 -12 -9 -27z"/>
<path d="M2080 1210 c0 -5 5 -10 10 -10 6 0 10 5 10 10 0 6 -4 10 -10 10 -5 0
-10 -4 -10 -10z"/>
<path d="M1151 1178 c-1 -25 -5 -28 -35 -28 -35 0 -55 -13 -36 -25 5 -3 10 -1
10 4 0 18 21 12 41 -11 18 -22 19 -22 17 -3 -3 18 3 20 68 20 63 0 70 2 66 17
-5 20 -27 24 -37 8 -3 -5 -24 -10 -45 -10 -35 0 -39 3 -43 28 l-4 27 -2 -27z"/>
<path d="M1557 1193 c-4 -3 -7 -11 -7 -17 0 -6 5 -5 12 2 6 6 9 14 7 17 -3 3
-9 2 -12 -2z"/>
<path d="M1670 1195 c-1 -5 -3 -19 -4 -30 0 -11 -11 -21 -26 -25 -18 -4 -21
-8 -12 -14 7 -4 16 -5 19 -2 3 3 12 1 20 -5 10 -9 13 -8 13 1 0 7 8 10 20 7
10 -3 24 1 30 7 14 17 0 29 -17 14 -17 -14 -30 -2 -36 32 -2 14 -5 21 -7 15z"/>
<path d="M1876 1185 c-3 -8 -1 -15 4 -15 6 0 10 7 10 15 0 8 -2 15 -4 15 -2 0
-6 -7 -10 -15z"/>
<path d="M1070 1180 c-13 -8 -12 -10 3 -10 9 0 17 5 17 10 0 12 -1 12 -20 0z"/>
<path d="M2090 1174 c0 -8 5 -12 10 -9 6 3 10 10 10 16 0 5 -4 9 -10 9 -5 0
-10 -7 -10 -16z"/>
<path d="M2140 1180 c0 -5 5 -10 10 -10 6 0 10 5 10 10 0 6 -4 10 -10 10 -5 0
-10 -4 -10 -10z"/>
<path d="M1447 1169 c15 -19 8 -29 -21 -29 -23 0 -12 -15 19 -24 17 -5 21 -1
23 18 1 13 -6 30 -16 37 -15 12 -16 12 -5 -2z"/>
<path d="M1310 1149 c0 -11 4 -17 10 -14 5 3 19 1 31 -5 11 -6 28 -9 36 -5 13
4 7 10 -20 25 -47 25 -57 25 -57 -1z"/>
<path d="M1796 1154 c-3 -9 -13 -14 -21 -10 -8 3 -17 1 -20 -3 -7 -13 20 -21
36 -10 8 5 28 7 44 4 28 -5 28 -4 8 7 -13 6 -23 15 -23 20 0 14 -18 9 -24 -8z"/>
<path d="M1570 1150 c-13 -9 -13 -11 -1 -19 17 -11 43 -3 38 12 -5 15 -20 18
-37 7z"/>
<path d="M2010 1148 c0 -5 -9 -7 -20 -3 -11 3 -28 2 -37 -4 -14 -8 -4 -10 40
-9 60 1 84 12 42 20 -14 3 -25 1 -25 -4z"/>
<path d="M1870 1140 c0 -5 15 -10 33 -10 24 0 28 3 17 10 -20 13 -50 13 -50 0z"/>
<path d="M1007 1129 c8 -8 16 -8 30 0 16 9 14 10 -11 11 -22 0 -27 -3 -19 -11z"/>
<path d="M1975 1101 c-3 -5 0 -13 6 -16 5 -4 8 -13 5 -21 -3 -8 -1 -14 4 -14
14 0 21 18 9 25 -5 4 -8 13 -5 21 6 16 -9 19 -19 5z"/>
<path d="M1357 1093 c-4 -3 -7 -11 -7 -17 0 -6 5 -5 12 2 6 6 9 14 7 17 -3 3
-9 2 -12 -2z"/>
<path d="M1662 1070 c0 -19 2 -27 5 -17 2 9 2 25 0 35 -3 9 -5 1 -5 -18z"/>
<path d="M1776 1085 c4 -8 10 -12 15 -9 14 8 10 24 -6 24 -9 0 -12 -6 -9 -15z"/>
<path d="M2086 1083 c-4 -9 -2 -21 4 -27 7 -7 10 -2 10 17 0 31 -5 34 -14 10z"/>
<path d="M2165 1090 c3 -5 8 -10 11 -10 2 0 4 5 4 10 0 6 -5 10 -11 10 -5 0
-7 -4 -4 -10z"/>
<path d="M150 1145 c0 -15 4 -24 10 -20 6 3 10 12 10 20 0 8 -4 17 -10 20 -6
4 -10 -5 -10 -20z"/>
<path d="M180 1090 c0 -5 5 -10 11 -10 5 0 7 5 4 10 -3 6 -8 10 -11 10 -2 0
-4 -4 -4 -10z"/>
<path d="M385 1070 c3 -5 8 -10 11 -10 2 0 4 5 4 10 0 6 -5 10 -11 10 -5 0 -7
-4 -4 -10z"/>
<path d="M650 1070 c0 -5 5 -10 10 -10 6 0 10 5 10 10 0 6 -4 10 -10 10 -5 0
-10 -4 -10 -10z"/>
<path d="M621 1036 c-8 -10 -7 -17 5 -27 13 -11 17 -10 25 2 12 20 11 26 -5
32 -8 3 -19 0 -25 -7z"/>
<path d="M212 980 c0 -14 2 -19 5 -12 2 6 2 18 0 25 -3 6 -5 1 -5 -13z"/>
<path d="M322 980 c0 -14 2 -19 5 -12 2 6 2 18 0 25 -3 6 -5 1 -5 -13z"/>
<path d="M431 983 c0 -6 -4 -20 -7 -30 -5 -14 -4 -15 5 -7 7 7 11 20 8 30 -3
11 -5 14 -6 7z"/>
<path d="M520 980 c0 -5 5 -10 10 -10 6 0 10 5 10 10 0 6 -4 10 -10 10 -5 0
-10 -4 -10 -10z"/>
<path d="M745 950 c-3 -5 -1 -10 4 -10 6 0 11 5 11 10 0 6 -2 10 -4 10 -3 0
-8 -4 -11 -10z"/>
<path d="M460 940 c0 -5 5 -10 10 -10 6 0 10 5 10 10 0 6 -4 10 -10 10 -5 0
-10 -4 -10 -10z"/>
<path d="M2840 1210 c0 -5 6 -10 13 -10 7 -1 5 -6 -6 -14 -16 -12 -16 -14 -1
-20 23 -9 24 -8 24 24 0 20 -5 30 -15 30 -8 0 -15 -4 -15 -10z"/>
<path d="M3225 1210 c-3 -5 -1 -10 4 -10 6 0 11 5 11 10 0 6 -2 10 -4 10 -3 0
-8 -4 -11 -10z"/>
<path d="M2790 1180 c0 -6 7 -10 15 -10 8 0 15 2 15 4 0 2 -7 6 -15 10 -8 3
-15 1 -15 -4z"/>
<path d="M2821 1104 c0 -11 3 -14 6 -6 3 7 2 16 -1 19 -3 4 -6 -2 -5 -13z"/>
<path d="M3360 1180 c0 -5 5 -10 11 -10 5 0 7 5 4 10 -3 6 -8 10 -11 10 -2 0
-4 -4 -4 -10z"/>
<path d="M3750 1105 c0 -5 5 -17 10 -25 5 -8 10 -10 10 -5 0 6 -5 17 -10 25
-5 8 -10 11 -10 5z"/>
<path d="M3035 1090 c3 -5 11 -10 16 -10 6 0 7 5 4 10 -3 6 -11 10 -16 10 -6
0 -7 -4 -4 -10z"/>
<path d="M3377 1093 c-2 -5 -1 -19 4 -33 8 -27 9 -26 13 8 3 23 -9 39 -17 25z"/>
<path d="M3622 1088 c3 -7 13 -15 24 -17 16 -3 17 -1 5 13 -16 19 -34 21 -29
4z"/>
<path d="M3440 1080 c0 -5 5 -10 11 -10 5 0 7 5 4 10 -3 6 -8 10 -11 10 -2 0
-4 -4 -4 -10z"/>
<path d="M3072 1060 c0 -14 2 -19 5 -12 2 6 2 18 0 25 -3 6 -5 1 -5 -13z"/>
<path d="M2905 1060 c-4 -6 3 -10 14 -10 25 0 27 6 6 13 -8 4 -17 2 -20 -3z"/>
<path d="M3088 943 c6 -2 18 -2 25 0 6 3 1 5 -13 5 -14 0 -19 -2 -12 -5z"/>
<path d="M4471 1223 c1 -4 1 -23 0 -40 -1 -28 -5 -33 -26 -33 -16 0 -25 6 -25
15 0 20 -16 19 -24 -1 -10 -25 -7 -46 5 -38 17 10 26 -13 23 -53 -1 -20 1 -32
6 -27 5 5 10 25 12 44 2 27 8 36 26 38 17 3 22 10 24 38 0 19 1 39 2 46 1 6
-5 13 -12 16 -7 2 -12 0 -11 -5z"/>
<path d="M3980 1170 c0 -5 5 -10 10 -10 6 0 10 5 10 10 0 6 -4 10 -10 10 -5 0
-10 -4 -10 -10z"/>
<path d="M4306 1159 c-6 -22 -8 -22 -15 -6 -6 17 -8 17 -20 3 -16 -19 -52 -21
-69 -4 -10 10 -17 10 -32 0 -11 -6 -32 -9 -50 -6 -19 4 -30 2 -30 -4 0 -14 31
-31 48 -25 7 3 12 -5 12 -22 0 -15 4 -24 10 -20 6 4 8 11 5 16 -11 17 24 21
55 6 16 -9 30 -12 30 -7 0 13 52 22 63 11 16 -16 27 -13 27 5 0 9 9 18 20 21
11 3 20 10 20 15 0 6 -8 7 -17 4 -11 -5 -23 1 -34 15 l-16 22 -7 -24z"/>
<path d="M4085 1090 c3 -5 10 -10 16 -10 5 0 9 5 9 10 0 6 -7 10 -16 10 -8 0
-12 -4 -9 -10z"/>
<path d="M5040 1201 c0 -5 5 -13 10 -16 6 -3 10 -2 10 4 0 5 -4 13 -10 16 -5
3 -10 2 -10 -4z"/>
<path d="M5285 1201 c-8 -25 1 -41 21 -41 18 0 18 19 0 43 -14 18 -14 17 -21
-2z"/>
<path d="M5576 1211 c-3 -5 1 -11 9 -15 8 -3 15 -1 15 4 0 13 -18 22 -24 11z"/>
<path d="M5240 1179 c0 -5 5 -7 10 -4 6 3 10 8 10 11 0 2 -4 4 -10 4 -5 0 -10
-5 -10 -11z"/>
<path d="M6335 1200 c3 -5 8 -10 11 -10 2 0 4 5 4 10 0 6 -5 10 -11 10 -5 0
-7 -4 -4 -10z"/>
<path d="M6255 1170 c3 -5 8 -10 11 -10 2 0 4 5 4 10 0 6 -5 10 -11 10 -5 0
-7 -4 -4 -10z"/>
<path d="M6550 1093 c0 -12 7 -23 15 -26 23 -9 26 9 5 28 -19 17 -20 17 -20
-2z"/>
<path d="M7075 1200 c3 -5 8 -10 11 -10 2 0 4 5 4 10 0 6 -5 10 -11 10 -5 0
-7 -4 -4 -10z"/>
<path d="M5800 1184 c0 -8 5 -12 10 -9 6 3 10 10 10 16 0 5 -4 9 -10 9 -5 0
-10 -7 -10 -16z"/>
<path d="M6235 1100 c3 -5 8 -10 11 -10 2 0 4 5 4 10 0 6 -5 10 -11 10 -5 0
-7 -4 -4 -10z"/>
<path d="M6015 1090 c3 -5 8 -10 11 -10 2 0 4 5 4 10 0 6 -5 10 -11 10 -5 0
-7 -4 -4 -10z"/>
<path d="M6150 1070 c0 -5 5 -10 11 -10 5 0 7 5 4 10 -3 6 -8 10 -11 10 -2 0
-4 -4 -4 -10z"/>
<path d="M2640 1085 c0 -8 0 -18 -1 -22 0 -4 4 -9 10 -11 6 -2 11 8 11 22 0
14 -4 26 -10 26 -5 0 -10 -7 -10 -15z"/>
<path d="M2590 1070 c0 -5 5 -10 11 -10 5 0 7 5 4 10 -3 6 -8 10 -11 10 -2 0
-4 -4 -4 -10z"/>
<path d="M5047 1093 c-4 -3 -7 -11 -7 -17 0 -6 5 -5 12 2 6 6 9 14 7 17 -3 3
-9 2 -12 -2z"/>
<path d="M5225 1080 c-3 -5 -1 -10 4 -10 6 0 11 5 11 10 0 6 -2 10 -4 10 -3 0
-8 -4 -11 -10z"/>
<path d="M5010 1065 c0 -8 5 -15 10 -15 6 0 10 7 10 15 0 8 -4 15 -10 15 -5 0
-10 -7 -10 -15z"/>
<path d="M5440 1060 c0 -5 5 -10 10 -10 6 0 10 5 10 10 0 6 -4 10 -10 10 -5 0
-10 -4 -10 -10z"/>
<path d="M5696 1081 c-4 -7 -5 -15 -2 -18 9 -9 19 4 14 18 -4 11 -6 11 -12 0z"/>
<path d="M5865 1090 c3 -5 8 -10 11 -10 2 0 4 5 4 10 0 6 -5 10 -11 10 -5 0
-7 -4 -4 -10z"/>
<path d="M5900 1090 c0 -5 5 -10 10 -10 6 0 10 5 10 10 0 6 -4 10 -10 10 -5 0
-10 -4 -10 -10z"/>
<path d="M6891 1084 c0 -11 3 -14 6 -6 3 7 2 16 -1 19 -3 4 -6 -2 -5 -13z"/>
<path d="M2590 990 c0 -5 5 -10 11 -10 5 0 7 5 4 10 -3 6 -8 10 -11 10 -2 0
-4 -4 -4 -10z"/>
<path d="M2746 941 c-4 -7 -5 -15 -2 -18 9 -9 19 4 14 18 -4 11 -6 11 -12 0z"/>
<path d="M3692 980 c0 -14 2 -19 5 -12 2 6 2 18 0 25 -3 6 -5 1 -5 -13z"/>
<path d="M3545 980 c-3 -5 -1 -10 4 -10 6 0 11 5 11 10 0 6 -2 10 -4 10 -3 0
-8 -4 -11 -10z"/>
<path d="M3831 974 c0 -11 3 -14 6 -6 3 7 2 16 -1 19 -3 4 -6 -2 -5 -13z"/>
<path d="M3892 973 c2 -9 8 -18 15 -20 7 -3 9 3 6 16 -6 25 -26 28 -21 4z"/>
<path d="M3400 950 c0 -5 5 -10 10 -10 6 0 10 5 10 10 0 6 -4 10 -10 10 -5 0
-10 -4 -10 -10z"/>
<path d="M3460 951 c0 -6 5 -13 10 -16 6 -3 10 1 10 9 0 9 -4 16 -10 16 -5 0
-10 -4 -10 -9z"/>
<path d="M3725 940 c-3 -5 -1 -10 4 -10 6 0 11 5 11 10 0 6 -2 10 -4 10 -3 0
-8 -4 -11 -10z"/>
<path d="M5040 981 c0 -6 5 -13 10 -16 6 -3 10 1 10 9 0 9 -4 16 -10 16 -5 0
-10 -4 -10 -9z"/>
<path d="M5120 939 c0 -5 5 -7 10 -4 6 3 10 8 10 11 0 2 -4 4 -10 4 -5 0 -10
-5 -10 -11z"/>
<path d="M5331 974 c0 -11 3 -14 6 -6 3 7 2 16 -1 19 -3 4 -6 -2 -5 -13z"/>
<path d="M5390 976 c0 -8 5 -18 10 -21 6 -3 10 3 10 14 0 12 -4 21 -10 21 -5
0 -10 -6 -10 -14z"/>
<path d="M5770 990 c0 -5 5 -10 11 -10 5 0 7 5 4 10 -3 6 -8 10 -11 10 -2 0
-4 -4 -4 -10z"/>
<path d="M6000 981 c0 -6 5 -13 10 -16 6 -3 10 1 10 9 0 9 -4 16 -10 16 -5 0
-10 -4 -10 -9z"/>
<path d="M6135 961 c-3 -5 -1 -12 5 -16 5 -3 10 1 10 9 0 18 -6 21 -15 7z"/>
<path d="M6076 943 c-6 -14 -5 -15 5 -6 7 7 10 15 7 18 -3 3 -9 -2 -12 -12z"/>
<path d="M18 3533 c12 -2 32 -2 45 0 12 2 2 4 -23 4 -25 0 -35 -2 -22 -4z"/>
<path d="M1560 2854 c0 -6 7 -19 16 -30 14 -18 14 -18 3 6 -14 31 -19 36 -19
24z"/>
<path d="M1656 2785 c-9 -26 -7 -32 5 -12 6 10 9 21 6 23 -2 3 -7 -2 -11 -11z"/>
<path d="M1611 2744 c0 -11 3 -14 6 -6 3 7 2 16 -1 19 -3 4 -6 -2 -5 -13z"/>
<path d="M1621 2674 c0 -11 3 -14 6 -6 3 7 2 16 -1 19 -3 4 -6 -2 -5 -13z"/>
<path d="M1672 2660 c0 -14 2 -19 5 -12 2 6 2 18 0 25 -3 6 -5 1 -5 -13z"/>
<path d="M1661 2593 c0 -6 -4 -20 -7 -30 -5 -14 -4 -15 5 -7 7 7 11 20 8 30
-3 11 -5 14 -6 7z"/>
<path d="M1622 2490 c0 -19 2 -27 5 -17 2 9 2 25 0 35 -3 9 -5 1 -5 -18z"/>
<path d="M1632 2420 c0 -14 2 -19 5 -12 2 6 2 18 0 25 -3 6 -5 1 -5 -13z"/>
<path d="M1620 2058 c0 -9 5 -20 10 -23 13 -8 13 5 0 25 -8 13 -10 13 -10 -2z"/>
<path d="M1666 1997 c3 -10 9 -15 12 -12 3 3 0 11 -7 18 -10 9 -11 8 -5 -6z"/>
<path d="M1647 1965 c7 -49 13 -58 13 -19 0 16 -5 36 -10 44 -6 10 -7 2 -3
-25z"/>
<path d="M1650 1829 c0 -5 5 -7 10 -4 6 3 10 8 10 11 0 2 -4 4 -10 4 -5 0 -10
-5 -10 -11z"/>
<path d="M7 1643 c7 -2 19 -2 26 0 6 3 1 5 -13 5 -14 0 -19 -2 -13 -5z"/>
</g>
</svg>
